<?xml version="1.0" encoding="UTF-8"?>
<!DOCTYPE svg PUBLIC "-//W3C//DTD SVG 1.1//EN" "http://www.w3.org/Graphics/SVG/1.1/DTD/svg11.dtd">
<svg xmlns="http://www.w3.org/2000/svg" version="1.1" width="1009px" height="2048px" style="shape-rendering:geometricPrecision; text-rendering:geometricPrecision; image-rendering:optimizeQuality; fill-rule:evenodd; clip-rule:evenodd" xmlns:xlink="http://www.w3.org/1999/xlink">
<g><path style="opacity:1" fill="#0b0d32" d="M -0.5,-0.5 C 70.8333,-0.5 142.167,-0.5 213.5,-0.5C 169.704,17.1083 133.871,45.1083 106,83.5C 88.066,109.525 72.566,137.025 59.5,166C 47.4662,161.76 35.4662,157.093 23.5,152C 15.5648,149.194 7.56481,146.694 -0.5,144.5C -0.5,96.1667 -0.5,47.8333 -0.5,-0.5 Z"/></g>
<g><path style="opacity:1" fill="#111337" d="M 213.5,-0.5 C 272.167,-0.5 330.833,-0.5 389.5,-0.5C 482.724,39.5281 534.891,110.195 546,211.5C 548.779,304.574 512.612,378.074 437.5,432C 373.085,472.68 304.085,482.347 230.5,461C 207.379,454.018 184.879,445.518 163,435.5C 152.885,455.726 142.218,475.726 131,495.5C 104.651,540.524 68.1512,574.357 21.5,597C 14.4809,600.339 7.14757,602.839 -0.5,604.5C -0.5,589.833 -0.5,575.167 -0.5,560.5C 31.7964,546.24 58.6297,524.907 80,496.5C 89.4161,483.34 98.0828,469.674 106,455.5C 118.428,430.65 130.261,405.65 141.5,380.5C 168.943,394.025 196.943,405.858 225.5,416C 247.253,423.351 269.586,428.017 292.5,430C 379,431.346 442.834,394.179 484,318.5C 510.179,260.709 511.179,202.376 487,143.5C 451.582,73.4485 394.749,33.9485 316.5,25C 235.942,22.192 173.775,54.3587 130,121.5C 124.081,131.002 118.414,140.669 113,150.5C 101.7,174.298 90.5338,197.964 79.5,221.5C 53.4812,208.486 26.8145,197.153 -0.5,187.5C -0.5,173.167 -0.5,158.833 -0.5,144.5C 7.56481,146.694 15.5648,149.194 23.5,152C 35.4662,157.093 47.4662,161.76 59.5,166C 72.566,137.025 88.066,109.525 106,83.5C 133.871,45.1083 169.704,17.1083 213.5,-0.5 Z"/></g>
<g><path style="opacity:1" fill="#0b0d32" d="M 389.5,-0.5 C 555.833,-0.5 722.167,-0.5 888.5,-0.5C 867.827,37.16 855.327,77.4933 851,120.5C 849.724,133.473 848.89,146.473 848.5,159.5C 806.293,156.442 764.626,159.609 723.5,169C 649.231,191.611 596.731,238.445 566,309.5C 536.351,388.649 543.351,464.316 587,536.5C 645.101,618.787 724.601,654.954 825.5,645C 893.059,634.809 947.559,602.642 989,548.5C 995.537,538.069 1002.04,527.736 1008.5,517.5C 1008.5,680.167 1008.5,842.833 1008.5,1005.5C 1003.74,1006.46 999.243,1008.13 995,1010.5C 1014.58,941.116 1006.58,875.116 971,812.5C 917.754,729.621 841.587,690.121 742.5,694C 689.412,698.059 642.746,717.226 602.5,751.5C 585.574,753.698 569.574,758.698 554.5,766.5C 542.386,667.558 490.719,598.058 399.5,558C 327.754,532.118 258.087,536.785 190.5,572C 127.234,608.632 87.7343,662.799 72,734.5C 66.0305,761.178 62.8639,788.178 62.5,815.5C 41.5,815.5 20.5,815.5 -0.5,815.5C -0.5,745.167 -0.5,674.833 -0.5,604.5C 7.14757,602.839 14.4809,600.339 21.5,597C 68.1512,574.357 104.651,540.524 131,495.5C 142.218,475.726 152.885,455.726 163,435.5C 184.879,445.518 207.379,454.018 230.5,461C 304.085,482.347 373.085,472.68 437.5,432C 512.612,378.074 548.779,304.574 546,211.5C 534.891,110.195 482.724,39.5281 389.5,-0.5 Z"/></g>
<g><path style="opacity:1" fill="#111337" d="M 888.5,-0.5 C 905.5,-0.5 922.5,-0.5 939.5,-0.5C 915.648,30.1513 900.814,64.8179 895,103.5C 890.09,136.314 887.59,169.314 887.5,202.5C 856.877,200.069 826.21,199.236 795.5,200C 733.828,200.457 681.995,222.957 640,267.5C 587.522,331.367 575.522,402.367 604,480.5C 633.934,547.077 684.767,587.91 756.5,603C 832.984,613.626 896.817,590.459 948,533.5C 967.185,509.129 980.518,481.795 988,451.5C 996.758,411.335 1000.92,370.668 1000.5,329.5C 1003.17,329.5 1005.83,329.5 1008.5,329.5C 1008.5,392.167 1008.5,454.833 1008.5,517.5C 1002.04,527.736 995.537,538.069 989,548.5C 947.559,602.642 893.059,634.809 825.5,645C 724.601,654.954 645.101,618.787 587,536.5C 543.351,464.316 536.351,388.649 566,309.5C 596.731,238.445 649.231,191.611 723.5,169C 764.626,159.609 806.293,156.442 848.5,159.5C 848.89,146.473 849.724,133.473 851,120.5C 855.327,77.4933 867.827,37.16 888.5,-0.5 Z"/></g>
<g><path style="opacity:1" fill="#0b0d32" d="M 939.5,-0.5 C 961.833,-0.5 984.167,-0.5 1006.5,-0.5C 969.25,23.3 945.75,56.9667 936,100.5C 928.812,134.413 925.312,168.746 925.5,203.5C 939.189,203.74 952.856,204.406 966.5,205.5C 965.51,166.556 970.676,128.556 982,91.5C 987.843,75.7918 996.676,62.1252 1008.5,50.5C 1008.5,117.167 1008.5,183.833 1008.5,250.5C 968.545,246.671 928.545,243.171 888.5,240C 847.282,235.469 806.282,236.803 765.5,244C 695.865,260.633 654.698,304.133 642,374.5C 635.437,440.904 659.271,493.07 713.5,531C 767.621,562.063 822.287,563.397 877.5,535C 906.139,518.217 927.305,494.717 941,464.5C 951.139,438.489 957.472,411.489 960,383.5C 961.527,365.176 962.694,346.843 963.5,328.5C 949.831,327.881 936.164,327.214 922.5,326.5C 922.546,361.379 918.379,395.712 910,429.5C 892.652,483.666 855.486,511.999 798.5,514.5C 747.608,511.976 711.442,487.643 690,441.5C 672.098,389.274 683.265,344.441 723.5,307C 745.406,290.841 770.072,281.841 797.5,280C 818.476,278.475 839.476,278.142 860.5,279C 909.956,282.811 959.289,287.311 1008.5,292.5C 1008.5,304.833 1008.5,317.167 1008.5,329.5C 1005.83,329.5 1003.17,329.5 1000.5,329.5C 1000.92,370.668 996.758,411.335 988,451.5C 980.518,481.795 967.185,509.129 948,533.5C 896.817,590.459 832.984,613.626 756.5,603C 684.767,587.91 633.934,547.077 604,480.5C 575.522,402.367 587.522,331.367 640,267.5C 681.995,222.957 733.828,200.457 795.5,200C 826.21,199.236 856.877,200.069 887.5,202.5C 887.59,169.314 890.09,136.314 895,103.5C 900.814,64.8179 915.648,30.1513 939.5,-0.5 Z"/></g>
<g><path style="opacity:1" fill="#111337" d="M 1006.5,-0.5 C 1007.17,-0.5 1007.83,-0.5 1008.5,-0.5C 1008.5,16.5 1008.5,33.5 1008.5,50.5C 996.676,62.1252 987.843,75.7918 982,91.5C 970.676,128.556 965.51,166.556 966.5,205.5C 952.856,204.406 939.189,203.74 925.5,203.5C 925.312,168.746 928.812,134.413 936,100.5C 945.75,56.9667 969.25,23.3 1006.5,-0.5 Z"/></g>
<g><path style="opacity:1" fill="#0b0d32" d="M -0.5,560.5 C -0.5,544.167 -0.5,527.833 -0.5,511.5C 5.21217,509.476 10.5455,506.643 15.5,503C 32.0409,490.793 46.2075,476.293 58,459.5C 77.2423,430.684 93.0756,400.018 105.5,367.5C 93.8131,360.99 81.8131,354.99 69.5,349.5C 63.5448,360.415 58.3782,371.748 54,383.5C 43.537,406.435 30.537,427.768 15,447.5C 9.96464,452.703 4.79798,457.703 -0.5,462.5C -0.5,398.833 -0.5,335.167 -0.5,271.5C 19.1334,279.146 38.4667,287.646 57.5,297C 93.8878,315.861 130.555,334.194 167.5,352C 195.346,364.589 224.013,374.922 253.5,383C 316.149,398.829 369.316,383.329 413,336.5C 447.376,294.989 459.043,247.656 448,194.5C 429.442,129.607 387.275,89.7739 321.5,75C 260.886,66.0832 211.053,84.9166 172,131.5C 147.548,163.243 129.382,198.076 117.5,236C 128.414,241.526 139.414,246.859 150.5,252C 151.635,252.749 152.635,252.583 153.5,251.5C 164.738,222.25 178.905,194.583 196,168.5C 233.027,116.777 281.527,101.944 341.5,124C 386.229,146.434 409.229,182.767 410.5,233C 408.392,278.883 387.392,313.216 347.5,336C 321.855,348.145 295.189,350.812 267.5,344C 258.762,341.982 250.096,339.649 241.5,337C 225.065,331.075 208.732,324.741 192.5,318C 147.833,296 103.167,274 58.5,252C 39.2321,243.028 19.5655,235.195 -0.5,228.5C -0.5,214.833 -0.5,201.167 -0.5,187.5C 26.8145,197.153 53.4812,208.486 79.5,221.5C 90.5338,197.964 101.7,174.298 113,150.5C 118.414,140.669 124.081,131.002 130,121.5C 173.775,54.3587 235.942,22.192 316.5,25C 394.749,33.9485 451.582,73.4485 487,143.5C 511.179,202.376 510.179,260.709 484,318.5C 442.834,394.179 379,431.346 292.5,430C 269.586,428.017 247.253,423.351 225.5,416C 196.943,405.858 168.943,394.025 141.5,380.5C 130.261,405.65 118.428,430.65 106,455.5C 98.0828,469.674 89.4161,483.34 80,496.5C 58.6297,524.907 31.7964,546.24 -0.5,560.5 Z"/></g>
<g><path style="opacity:1" fill="#111337" d="M -0.5,271.5 C -0.5,257.167 -0.5,242.833 -0.5,228.5C 19.5655,235.195 39.2321,243.028 58.5,252C 103.167,274 147.833,296 192.5,318C 208.732,324.741 225.065,331.075 241.5,337C 250.096,339.649 258.762,341.982 267.5,344C 295.189,350.812 321.855,348.145 347.5,336C 387.392,313.216 408.392,278.883 410.5,233C 409.229,182.767 386.229,146.434 341.5,124C 281.527,101.944 233.027,116.777 196,168.5C 178.905,194.583 164.738,222.25 153.5,251.5C 152.635,252.583 151.635,252.749 150.5,252C 139.414,246.859 128.414,241.526 117.5,236C 129.382,198.076 147.548,163.243 172,131.5C 211.053,84.9166 260.886,66.0832 321.5,75C 387.275,89.7739 429.442,129.607 448,194.5C 459.043,247.656 447.376,294.989 413,336.5C 369.316,383.329 316.149,398.829 253.5,383C 224.013,374.922 195.346,364.589 167.5,352C 130.555,334.194 93.8878,315.861 57.5,297C 38.4667,287.646 19.1334,279.146 -0.5,271.5 Z"/></g>
<g><path style="opacity:1" fill="#111337" d="M 283.5,169.5 C 309.918,166.79 330.751,176.124 346,197.5C 362.241,229.108 357.407,256.941 331.5,281C 312.011,294.43 291.011,297.097 268.5,289C 238.552,273.27 226.719,248.77 233,215.5C 240.9,190.089 257.734,174.756 283.5,169.5 Z"/></g>
<g><path style="opacity:1" fill="#111337" d="M 1008.5,250.5 C 1008.5,264.5 1008.5,278.5 1008.5,292.5C 959.289,287.311 909.956,282.811 860.5,279C 839.476,278.142 818.476,278.475 797.5,280C 770.072,281.841 745.406,290.841 723.5,307C 683.265,344.441 672.098,389.274 690,441.5C 711.442,487.643 747.608,511.976 798.5,514.5C 855.486,511.999 892.652,483.666 910,429.5C 918.379,395.712 922.546,361.379 922.5,326.5C 936.164,327.214 949.831,327.881 963.5,328.5C 962.694,346.843 961.527,365.176 960,383.5C 957.472,411.489 951.139,438.489 941,464.5C 927.305,494.717 906.139,518.217 877.5,535C 822.287,563.397 767.621,562.063 713.5,531C 659.271,493.07 635.437,440.904 642,374.5C 654.698,304.133 695.865,260.633 765.5,244C 806.282,236.803 847.282,235.469 888.5,240C 928.545,243.171 968.545,246.671 1008.5,250.5 Z"/></g>
<g><path style="opacity:1" fill="#111337" d="M 791.5,334.5 C 823.1,333.042 845.266,346.709 858,375.5C 866.592,407.376 857.426,432.542 830.5,451C 798.4,466.248 770.9,460.415 748,433.5C 729.692,402.539 733.192,374.372 758.5,349C 768.454,341.525 779.454,336.692 791.5,334.5 Z"/></g>
<g><path style="opacity:1" fill="#111337" d="M -0.5,511.5 C -0.5,495.167 -0.5,478.833 -0.5,462.5C 4.79798,457.703 9.96464,452.703 15,447.5C 30.537,427.768 43.537,406.435 54,383.5C 58.3782,371.748 63.5448,360.415 69.5,349.5C 81.8131,354.99 93.8131,360.99 105.5,367.5C 93.0756,400.018 77.2423,430.684 58,459.5C 46.2075,476.293 32.0409,490.793 15.5,503C 10.5455,506.643 5.21217,509.476 -0.5,511.5 Z"/></g>
<g><path style="opacity:1" fill="#111337" d="M 554.5,766.5 C 539.47,775.357 525.47,785.691 512.5,797.5C 514.841,732.645 492.507,678.145 445.5,634C 391.932,588.608 330.599,573.275 261.5,588C 175.101,613.406 124.267,670.573 109,759.5C 103.823,792.63 101.323,825.963 101.5,859.5C 67.5352,856.596 33.5352,855.929 -0.5,857.5C -0.5,843.5 -0.5,829.5 -0.5,815.5C 20.5,815.5 41.5,815.5 62.5,815.5C 62.8639,788.178 66.0305,761.178 72,734.5C 87.7343,662.799 127.234,608.632 190.5,572C 258.087,536.785 327.754,532.118 399.5,558C 490.719,598.058 542.386,667.558 554.5,766.5 Z"/></g>
<g><path style="opacity:1" fill="#0b0d32" d="M 512.5,797.5 C 509.871,800.631 507.038,803.631 504,806.5C 490.476,793.126 475.976,781.126 460.5,770.5C 449.997,709.167 415.997,666.667 358.5,643C 292.836,621.878 235.669,635.378 187,683.5C 168.22,706.062 155.553,731.728 149,760.5C 142.472,793.167 139.305,826.167 139.5,859.5C 153.173,860.453 166.84,861.453 180.5,862.5C 180.191,827.677 184.024,793.344 192,759.5C 209.541,705.474 246.708,677.141 303.5,674.5C 346.341,675.543 379.508,693.876 403,729.5C 407.597,736.692 411.097,744.358 413.5,752.5C 393.646,750.426 373.979,751.426 354.5,755.5C 330.484,728.09 302.15,722.59 269.5,739C 250.97,751.72 241.303,769.387 240.5,792C 241.371,811.831 249.037,828.331 263.5,841.5C 256.259,863.74 254.593,886.407 258.5,909.5C 243.48,909.088 228.48,908.254 213.5,907C 159.478,900.968 105.311,896.801 51,894.5C 33.787,894.854 16.6203,895.854 -0.5,897.5C -0.5,884.167 -0.5,870.833 -0.5,857.5C 33.5352,855.929 67.5352,856.596 101.5,859.5C 101.323,825.963 103.823,792.63 109,759.5C 124.267,670.573 175.101,613.406 261.5,588C 330.599,573.275 391.932,588.608 445.5,634C 492.507,678.145 514.841,732.645 512.5,797.5 Z"/></g>
<g><path style="opacity:1" fill="#121438" d="M 460.5,770.5 C 445.811,761.99 430.144,755.99 413.5,752.5C 411.097,744.358 407.597,736.692 403,729.5C 379.508,693.876 346.341,675.543 303.5,674.5C 246.708,677.141 209.541,705.474 192,759.5C 184.024,793.344 180.191,827.677 180.5,862.5C 166.84,861.453 153.173,860.453 139.5,859.5C 139.305,826.167 142.472,793.167 149,760.5C 155.553,731.728 168.22,706.062 187,683.5C 235.669,635.378 292.836,621.878 358.5,643C 415.997,666.667 449.997,709.167 460.5,770.5 Z"/></g>
<g><path style="opacity:1" fill="#121438" d="M 1008.5,1005.5 C 1008.5,1020.17 1008.5,1034.83 1008.5,1049.5C 989.527,1058.82 972.194,1070.49 956.5,1084.5C 972.965,1062.24 985.132,1037.9 993,1011.5C 967.652,1023.58 944.819,1039.25 924.5,1058.5C 967.861,994.243 975.028,925.91 946,853.5C 907.519,777.25 845.519,737.583 760,734.5C 735.356,734.163 711.523,738.329 688.5,747C 679.827,750.67 671.494,754.836 663.5,759.5C 643.839,752.17 623.506,749.503 602.5,751.5C 642.746,717.226 689.412,698.059 742.5,694C 841.587,690.121 917.754,729.621 971,812.5C 1006.58,875.116 1014.58,941.116 995,1010.5C 999.243,1008.13 1003.74,1006.46 1008.5,1005.5 Z"/></g>
<g><path style="opacity:1" fill="#121438" d="M 354.5,755.5 C 310.557,769.777 280.224,798.443 263.5,841.5C 249.037,828.331 241.371,811.831 240.5,792C 241.303,769.387 250.97,751.72 269.5,739C 302.15,722.59 330.484,728.09 354.5,755.5 Z"/></g>
<g><path style="opacity:1" fill="#0b0d32" d="M 924.5,1058.5 C 916.471,1067.53 908.471,1076.53 900.5,1085.5C 861.419,1120.38 815.419,1138.54 762.5,1140C 731.097,1141.05 699.764,1140.21 668.5,1137.5C 669.201,1131.36 670.534,1125.36 672.5,1119.5C 671.311,1118.57 669.978,1118.24 668.5,1118.5C 667.528,1124.19 666.361,1129.86 665,1135.5C 663.594,1129.79 662.094,1124.12 660.5,1118.5C 658.856,1118.29 657.356,1118.62 656,1119.5C 654.667,1124.17 653.333,1128.83 652,1133.5C 650.169,1129.04 648.836,1124.37 648,1119.5C 646.989,1118.66 645.822,1118.33 644.5,1118.5C 645.68,1125.22 647.18,1131.89 649,1138.5C 650.667,1139.83 652.333,1139.83 654,1138.5C 655.458,1133.55 656.791,1128.55 658,1123.5C 660.418,1128.59 661.918,1133.92 662.5,1139.5C 663.5,1139.5 664.5,1139.5 665.5,1139.5C 664.881,1176.78 661.381,1213.78 655,1250.5C 648.474,1280.62 636.64,1308.29 619.5,1333.5C 611.805,1342.19 604.138,1350.86 596.5,1359.5C 534.558,1413.52 464.225,1427.69 385.5,1402C 336.636,1382.46 299.803,1349.63 275,1303.5C 241.449,1229.93 246.949,1159.6 291.5,1092.5C 293.833,1092.5 296.167,1092.5 298.5,1092.5C 298.5,1091.5 298.5,1090.5 298.5,1089.5C 297.602,1088.84 296.602,1088.18 295.5,1087.5C 297.552,1085.12 299.552,1082.79 301.5,1080.5C 302.32,1089.82 307.32,1093.66 316.5,1092C 318.64,1091.03 320.307,1089.53 321.5,1087.5C 321.167,1086.5 320.5,1085.83 319.5,1085.5C 315.64,1090.28 311.474,1090.62 307,1086.5C 306.506,1084.87 306.34,1083.2 306.5,1081.5C 311.833,1081.5 317.167,1081.5 322.5,1081.5C 323.588,1073.6 320.255,1069.27 312.5,1068.5C 333.98,1046.43 359.313,1030.43 388.5,1020.5C 407.155,1020.64 425.155,1017.3 442.5,1010.5C 479.169,1007.79 515.836,1008.12 552.5,1011.5C 552.198,1008.94 552.532,1006.61 553.5,1004.5C 599.262,1027.02 644.262,1025.52 688.5,1000C 694.943,996.053 700.943,991.553 706.5,986.5C 710.272,989.094 713.939,991.927 717.5,995C 742.43,1010.55 767.096,1010.21 791.5,994C 814.281,974.051 821.115,949.551 812,920.5C 800.1,894.781 779.933,881.781 751.5,881.5C 750.859,862.583 746.525,844.583 738.5,827.5C 789.239,822.787 828.406,841.787 856,884.5C 880.14,932.153 876.14,977.153 844,1019.5C 827.179,1039.12 806.013,1051.28 780.5,1056C 769.876,1058.64 759.209,1059.81 748.5,1059.5C 747.5,1059.5 746.5,1059.5 745.5,1059.5C 742.609,1060.4 739.609,1060.74 736.5,1060.5C 736.083,1059.88 735.416,1059.54 734.5,1059.5C 733.287,1059.75 732.62,1060.41 732.5,1061.5C 730.167,1061.5 727.833,1061.5 725.5,1061.5C 723.833,1058.83 722.167,1058.83 720.5,1061.5C 714.833,1061.5 709.167,1061.5 703.5,1061.5C 703.38,1060.41 702.713,1059.75 701.5,1059.5C 700.584,1059.54 699.917,1059.88 699.5,1060.5C 684.468,1060.31 669.468,1059.47 654.5,1058C 617.544,1054.25 580.544,1050.91 543.5,1048C 504.939,1044.81 466.606,1046.47 428.5,1053C 413.21,1056.65 398.544,1061.81 384.5,1068.5C 379.777,1067.55 375.944,1068.89 373,1072.5C 372.51,1071.21 372.343,1069.87 372.5,1068.5C 371.5,1068.5 370.5,1068.5 369.5,1068.5C 369.5,1071.83 369.5,1075.17 369.5,1078.5C 364.573,1081.42 359.906,1084.75 355.5,1088.5C 355.334,1083.82 355.501,1079.15 356,1074.5C 358.196,1071.87 361.03,1070.87 364.5,1071.5C 364.5,1070.5 364.5,1069.5 364.5,1068.5C 361.398,1068.15 358.565,1068.82 356,1070.5C 354.951,1068.89 353.451,1068.23 351.5,1068.5C 351.5,1076.5 351.5,1084.5 351.5,1092.5C 345.678,1098.83 340.344,1105.5 335.5,1112.5C 330.859,1115.1 328.192,1119.1 327.5,1124.5C 319.869,1136.99 314.035,1150.32 310,1164.5C 295.595,1230.11 313.428,1284.95 363.5,1329C 413.99,1366.4 468.657,1373.74 527.5,1351C 575.258,1328.37 605.091,1291.2 617,1239.5C 623.829,1206.54 627.329,1173.2 627.5,1139.5C 638.571,1139.72 642.738,1134.39 640,1123.5C 633.924,1116.9 627.924,1116.9 622,1123.5C 621.306,1127.55 621.473,1131.55 622.5,1135.5C 618.366,1136.48 614.032,1136.82 609.5,1136.5C 609.334,1132.49 609.501,1128.49 610,1124.5C 612.196,1121.87 615.03,1120.87 618.5,1121.5C 618.5,1120.5 618.5,1119.5 618.5,1118.5C 614.987,1117.88 612.153,1118.88 610,1121.5C 609.517,1120.55 609.351,1119.55 609.5,1118.5C 608.5,1118.5 607.5,1118.5 606.5,1118.5C 605.511,1123.98 605.178,1129.64 605.5,1135.5C 603.833,1135.5 602.167,1135.5 600.5,1135.5C 600.815,1131.63 600.482,1127.96 599.5,1124.5C 595.833,1124.5 592.167,1124.5 588.5,1124.5C 588.5,1125.5 588.5,1126.5 588.5,1127.5C 591.167,1127.5 593.833,1127.5 596.5,1127.5C 596.609,1134.99 592.942,1137.82 585.5,1136C 582.906,1134.66 581.406,1132.49 581,1129.5C 579.957,1115.84 585.624,1112.18 598,1118.5C 598.5,1118.17 599,1117.83 599.5,1117.5C 597.258,1113.71 593.925,1112.05 589.5,1112.5C 577.553,1114.75 573.719,1121.75 578,1133.5C 579.899,1136.86 582.732,1138.86 586.5,1139.5C 587.079,1174.87 582.579,1209.54 573,1243.5C 554.326,1294.13 517.826,1320.79 463.5,1323.5C 407.585,1320.08 370.085,1292.08 351,1239.5C 341.142,1203.66 346.308,1170.33 366.5,1139.5C 370.641,1138.36 372.974,1135.7 373.5,1131.5C 374.723,1128.6 376.723,1126.27 379.5,1124.5C 379.5,1129.5 379.5,1134.5 379.5,1139.5C 380.5,1139.5 381.5,1139.5 382.5,1139.5C 382.334,1134.82 382.501,1130.15 383,1125.5C 385.693,1121.23 389.027,1120.56 393,1123.5C 393.499,1128.82 393.666,1134.16 393.5,1139.5C 394.5,1139.5 395.5,1139.5 396.5,1139.5C 396.666,1133.49 396.499,1127.49 396,1121.5C 393.454,1118.81 390.287,1117.81 386.5,1118.5C 385.668,1117.67 386.001,1116.84 387.5,1116C 402.457,1103.91 419.457,1096.08 438.5,1092.5C 440.099,1092.77 441.432,1092.43 442.5,1091.5C 444.06,1091.48 445.56,1091.15 447,1090.5C 448.03,1090.84 448.53,1091.5 448.5,1092.5C 446.676,1096.54 447.676,1099.7 451.5,1102C 455.5,1102.67 459.5,1102.67 463.5,1102C 468.143,1099.93 469.643,1096.43 468,1091.5C 467.184,1090.18 466.017,1089.51 464.5,1089.5C 467.219,1088.09 470.219,1087.42 473.5,1087.5C 473.5,1089.17 473.5,1090.83 473.5,1092.5C 474.833,1092.5 476.167,1092.5 477.5,1092.5C 477.334,1086.82 477.501,1081.16 478,1075.5C 480.647,1071.24 483.981,1070.57 488,1073.5C 488.5,1079.82 488.666,1086.16 488.5,1092.5C 489.833,1092.5 491.167,1092.5 492.5,1092.5C 492.5,1090.83 492.5,1089.17 492.5,1087.5C 498.5,1087.5 504.5,1087.5 510.5,1087.5C 510.5,1089.17 510.5,1090.83 510.5,1092.5C 511.833,1092.5 513.167,1092.5 514.5,1092.5C 515.451,1091.08 515.784,1089.41 515.5,1087.5C 517.833,1087.5 520.167,1087.5 522.5,1087.5C 522.216,1089.41 522.549,1091.08 523.5,1092.5C 524.5,1092.5 525.5,1092.5 526.5,1092.5C 526.334,1087.16 526.501,1081.82 527,1076.5C 529.488,1071.2 533.155,1070.2 538,1073.5C 538.5,1079.82 538.666,1086.16 538.5,1092.5C 539.833,1092.5 541.167,1092.5 542.5,1092.5C 542.5,1091.17 542.5,1089.83 542.5,1088.5C 545.206,1088.58 547.873,1088.91 550.5,1089.5C 555.256,1093.05 560.256,1093.38 565.5,1090.5C 569.154,1090.94 572.821,1091.28 576.5,1091.5C 579.728,1092.41 583.061,1092.75 586.5,1092.5C 630.335,1097.92 674.335,1101.26 718.5,1102.5C 753.18,1103.46 786.846,1098.29 819.5,1087C 857.727,1070.44 884.894,1042.94 901,1004.5C 922.286,945.493 913.953,891.16 876,841.5C 831.386,793.215 776.886,776.215 712.5,790.5C 698.533,776.553 682.199,766.22 663.5,759.5C 671.494,754.836 679.827,750.67 688.5,747C 711.523,738.329 735.356,734.163 760,734.5C 845.519,737.583 907.519,777.25 946,853.5C 975.028,925.91 967.861,994.243 924.5,1058.5 Z"/></g>
<g><path style="opacity:1" fill="#fdfdfd" d="M 413.5,752.5 C 430.144,755.99 445.811,761.99 460.5,770.5C 475.976,781.126 490.476,793.126 504,806.5C 507.038,803.631 509.871,800.631 512.5,797.5C 525.47,785.691 539.47,775.357 554.5,766.5C 569.574,758.698 585.574,753.698 602.5,751.5C 623.506,749.503 643.839,752.17 663.5,759.5C 682.199,766.22 698.533,776.553 712.5,790.5C 722.889,801.607 731.556,813.941 738.5,827.5C 746.525,844.583 750.859,862.583 751.5,881.5C 752.037,923.4 737.037,958.4 706.5,986.5C 700.943,991.553 694.943,996.053 688.5,1000C 644.262,1025.52 599.262,1027.02 553.5,1004.5C 535.74,993.256 519.24,980.256 504,965.5C 485.854,983.827 465.354,998.827 442.5,1010.5C 425.155,1017.3 407.155,1020.64 388.5,1020.5C 385.167,1020.5 381.833,1020.5 378.5,1020.5C 359.836,1018.28 342.169,1012.61 325.5,1003.5C 317.31,998.906 309.643,993.573 302.5,987.5C 290.617,977.284 280.951,965.284 273.5,951.5C 266.123,938.371 261.123,924.371 258.5,909.5C 254.593,886.407 256.259,863.74 263.5,841.5C 280.224,798.443 310.557,769.777 354.5,755.5C 373.979,751.426 393.646,750.426 413.5,752.5 Z"/></g>
<g><path style="opacity:1" fill="#0b0e32" d="M 420.5,778.5 C 420.825,786.352 420.492,794.018 419.5,801.5C 400.975,797.054 382.642,797.721 364.5,803.5C 365.209,794.442 365.542,785.442 365.5,776.5C 384.153,772.012 402.487,772.678 420.5,778.5 Z"/></g>
<g><path style="opacity:1" fill="#0b0e32" d="M 639.5,776.5 C 657.153,779.829 672.82,787.163 686.5,798.5C 686.631,799.376 686.298,800.043 685.5,800.5C 677.403,804.878 669.403,809.211 661.5,813.5C 647.933,804.311 632.933,799.311 616.5,798.5C 615.737,797.732 614.737,797.232 613.5,797C 620.235,789.595 627.568,782.928 635.5,777C 636.793,776.51 638.127,776.343 639.5,776.5 Z"/></g>
<g><path style="opacity:1" fill="#131438" d="M 365.5,776.5 C 365.542,785.442 365.209,794.442 364.5,803.5C 341.553,813.78 324.887,830.447 314.5,853.5C 304.361,854.953 294.361,854.286 284.5,851.5C 298.336,812.332 325.336,787.332 365.5,776.5 Z"/></g>
<g><path style="opacity:1" fill="#121438" d="M 586.5,1092.5 C 592.45,1088.84 594.617,1083.5 593,1076.5C 589.683,1069.06 584.183,1066.89 576.5,1070C 569.938,1077.13 569.938,1084.3 576.5,1091.5C 572.821,1091.28 569.154,1090.94 565.5,1090.5C 567.743,1088.63 567.91,1086.63 566,1084.5C 562.038,1090.63 557.705,1090.96 553,1085.5C 552.333,1082.17 552.333,1078.83 553,1075.5C 557.125,1070.22 561.292,1070.22 565.5,1075.5C 568.105,1073.76 568.105,1071.93 565.5,1070C 552.034,1066.46 546.534,1071.63 549,1085.5C 549.791,1086.74 550.291,1088.08 550.5,1089.5C 547.873,1088.91 545.206,1088.58 542.5,1088.5C 542.904,1082.71 542.404,1077.04 541,1071.5C 535.967,1067.22 531.3,1067.55 527,1072.5C 526.51,1071.21 526.343,1069.87 526.5,1068.5C 525.5,1068.5 524.5,1068.5 523.5,1068.5C 523.5,1076.5 523.5,1084.5 523.5,1092.5C 522.549,1091.08 522.216,1089.41 522.5,1087.5C 520.167,1087.5 517.833,1087.5 515.5,1087.5C 515.784,1089.41 515.451,1091.08 514.5,1092.5C 514.5,1082.17 514.5,1071.83 514.5,1061.5C 513.167,1061.5 511.833,1061.5 510.5,1061.5C 510.5,1070.17 510.5,1078.83 510.5,1087.5C 504.5,1087.5 498.5,1087.5 492.5,1087.5C 492.666,1082.49 492.499,1077.49 492,1072.5C 487.625,1067.62 482.958,1067.29 478,1071.5C 477.501,1067.51 477.334,1063.51 477.5,1059.5C 476.167,1059.5 474.833,1059.5 473.5,1059.5C 473.5,1068.83 473.5,1078.17 473.5,1087.5C 470.219,1087.42 467.219,1088.09 464.5,1089.5C 460.936,1088.58 457.269,1088.24 453.5,1088.5C 453.33,1087.18 453.663,1086.01 454.5,1085C 464.765,1085.27 468.099,1080.77 464.5,1071.5C 466.415,1069.93 467.415,1067.93 467.5,1065.5C 466.167,1065.5 464.833,1065.5 463.5,1065.5C 463.762,1066.98 463.429,1068.31 462.5,1069.5C 453.369,1066.81 449.203,1070.14 450,1079.5C 450.465,1080.93 451.299,1082.1 452.5,1083C 449.068,1085.37 448.735,1088.03 451.5,1091C 450.473,1091.51 449.473,1092.01 448.5,1092.5C 448.53,1091.5 448.03,1090.84 447,1090.5C 445.56,1091.15 444.06,1091.48 442.5,1091.5C 442.5,1083.83 442.5,1076.17 442.5,1068.5C 441.167,1068.5 439.833,1068.5 438.5,1068.5C 438.5,1076.5 438.5,1084.5 438.5,1092.5C 419.457,1096.08 402.457,1103.91 387.5,1116C 386.001,1116.84 385.668,1117.67 386.5,1118.5C 385.312,1119.36 384.145,1120.36 383,1121.5C 382.517,1120.55 382.351,1119.55 382.5,1118.5C 381.5,1118.5 380.5,1118.5 379.5,1118.5C 379.5,1120.5 379.5,1122.5 379.5,1124.5C 376.723,1126.27 374.723,1128.6 373.5,1131.5C 374.397,1121.23 369.73,1117.07 359.5,1119C 354.018,1123.89 353.018,1129.72 356.5,1136.5C 359.266,1139.14 362.599,1140.14 366.5,1139.5C 346.308,1170.33 341.142,1203.66 351,1239.5C 370.085,1292.08 407.585,1320.08 463.5,1323.5C 517.826,1320.79 554.326,1294.13 573,1243.5C 582.579,1209.54 587.079,1174.87 586.5,1139.5C 590.192,1140.03 593.358,1139.03 596,1136.5C 596.483,1137.45 596.649,1138.45 596.5,1139.5C 597.5,1139.5 598.5,1139.5 599.5,1139.5C 599.5,1134.5 599.5,1129.5 599.5,1124.5C 600.482,1127.96 600.815,1131.63 600.5,1135.5C 602.167,1135.5 603.833,1135.5 605.5,1135.5C 605.178,1129.64 605.511,1123.98 606.5,1118.5C 606.5,1125.5 606.5,1132.5 606.5,1139.5C 607.5,1139.5 608.5,1139.5 609.5,1139.5C 609.5,1138.5 609.5,1137.5 609.5,1136.5C 614.032,1136.82 618.366,1136.48 622.5,1135.5C 623.945,1137.06 625.611,1138.4 627.5,1139.5C 627.329,1173.2 623.829,1206.54 617,1239.5C 605.091,1291.2 575.258,1328.37 527.5,1351C 468.657,1373.74 413.99,1366.4 363.5,1329C 313.428,1284.95 295.595,1230.11 310,1164.5C 314.035,1150.32 319.869,1136.99 327.5,1124.5C 327.144,1136.31 332.81,1141.14 344.5,1139C 347.857,1137.49 349.857,1134.99 350.5,1131.5C 347.886,1131.28 346.219,1132.44 345.5,1135C 336.222,1138.53 331.555,1135.36 331.5,1125.5C 331.321,1117.84 334.988,1114.68 342.5,1116C 344.869,1116.54 346.869,1117.7 348.5,1119.5C 349.5,1119.17 350.167,1118.5 350.5,1117.5C 346.632,1112.92 341.632,1111.25 335.5,1112.5C 340.344,1105.5 345.678,1098.83 351.5,1092.5C 352.833,1092.5 354.167,1092.5 355.5,1092.5C 355.5,1091.17 355.5,1089.83 355.5,1088.5C 359.906,1084.75 364.573,1081.42 369.5,1078.5C 369.5,1083.17 369.5,1087.83 369.5,1092.5C 370.833,1092.5 372.167,1092.5 373.5,1092.5C 373.334,1086.82 373.501,1081.16 374,1075.5C 376.647,1071.24 379.981,1070.57 384,1073.5C 384.5,1079.82 384.666,1086.16 384.5,1092.5C 385.833,1092.5 387.167,1092.5 388.5,1092.5C 388.666,1085.83 388.5,1079.16 388,1072.5C 386.624,1071.29 385.458,1069.96 384.5,1068.5C 398.544,1061.81 413.21,1056.65 428.5,1053C 466.606,1046.47 504.939,1044.81 543.5,1048C 580.544,1050.91 617.544,1054.25 654.5,1058C 669.468,1059.47 684.468,1060.31 699.5,1060.5C 699.5,1071.17 699.5,1081.83 699.5,1092.5C 700.833,1092.5 702.167,1092.5 703.5,1092.5C 703.335,1088.82 703.501,1085.15 704,1081.5C 706.833,1085 709.667,1088.5 712.5,1092C 714.167,1092.67 715.833,1092.67 717.5,1092C 713.977,1087.98 710.643,1083.81 707.5,1079.5C 710.618,1076.09 713.618,1072.59 716.5,1069C 714.741,1068.2 713.074,1068.37 711.5,1069.5C 708.812,1072.35 706.312,1075.35 704,1078.5C 703.501,1072.84 703.334,1067.18 703.5,1061.5C 709.167,1061.5 714.833,1061.5 720.5,1061.5C 720.418,1063.25 721.251,1064.25 723,1064.5C 724.749,1064.25 725.582,1063.25 725.5,1061.5C 727.833,1061.5 730.167,1061.5 732.5,1061.5C 732.334,1070.84 732.5,1080.17 733,1089.5C 733.374,1090.42 733.874,1091.25 734.5,1092C 736.473,1092.5 738.473,1092.66 740.5,1092.5C 740.5,1091.5 740.5,1090.5 740.5,1089.5C 739.167,1089.5 737.833,1089.5 736.5,1089.5C 736.5,1079.83 736.5,1070.17 736.5,1060.5C 739.609,1060.74 742.609,1060.4 745.5,1059.5C 745.334,1069.84 745.5,1080.17 746,1090.5C 747.789,1092.23 749.956,1092.9 752.5,1092.5C 752.5,1091.5 752.5,1090.5 752.5,1089.5C 751.178,1089.67 750.011,1089.34 749,1088.5C 748.5,1078.84 748.334,1069.17 748.5,1059.5C 759.209,1059.81 769.876,1058.64 780.5,1056C 806.013,1051.28 827.179,1039.12 844,1019.5C 876.14,977.153 880.14,932.153 856,884.5C 828.406,841.787 789.239,822.787 738.5,827.5C 731.556,813.941 722.889,801.607 712.5,790.5C 776.886,776.215 831.386,793.215 876,841.5C 913.953,891.16 922.286,945.493 901,1004.5C 884.894,1042.94 857.727,1070.44 819.5,1087C 786.846,1098.29 753.18,1103.46 718.5,1102.5C 674.335,1101.26 630.335,1097.92 586.5,1092.5 Z"/></g>
<g><path style="opacity:1" fill="#fdfdfd" d="M 419.5,801.5 C 439.377,809.533 457.044,821.033 472.5,836C 481.036,844.368 489.369,852.868 497.5,861.5C 515.262,881.432 533.596,900.932 552.5,920C 566.088,932.964 581.755,942.631 599.5,949C 609.555,950.971 619.555,950.638 629.5,948C 632.476,947.295 635.142,946.129 637.5,944.5C 662.225,932.748 675.225,913.081 676.5,885.5C 674.047,850.549 655.714,829.382 621.5,822C 614.833,821.333 608.167,821.333 601.5,822C 597.891,822.701 594.558,823.868 591.5,825.5C 583.28,828.611 575.613,832.777 568.5,838C 556.73,847.768 545.563,858.268 535,869.5C 530.2,863.698 525.033,858.198 519.5,853C 536.565,833.261 556.565,817.261 579.5,805C 591.32,799.936 603.653,797.769 616.5,798.5C 632.933,799.311 647.933,804.311 661.5,813.5C 673.686,822.349 683.353,833.349 690.5,846.5C 705.284,881.343 701.117,913.676 678,943.5C 665.882,956.976 651.048,965.976 633.5,970.5C 610.059,976.365 588.059,972.865 567.5,960C 557.809,953.487 548.476,946.487 539.5,939C 520.872,921.21 503.206,902.71 486.5,883.5C 469.092,861.918 448.759,843.752 425.5,829C 400.402,817.152 376.735,819.486 354.5,836C 330.731,859.178 325.565,886.012 339,916.5C 357.02,945.084 382.52,955.25 415.5,947C 437.402,936.03 456.402,921.196 472.5,902.5C 473.183,902.863 473.85,903.196 474.5,903.5C 478.797,908.298 483.297,912.965 488,917.5C 472.618,937.197 453.784,953.03 431.5,965C 426.499,966.944 421.499,968.777 416.5,970.5C 411.715,971.509 407.048,972.509 402.5,973.5C 355.069,973.151 324.403,950.484 310.5,905.5C 306.941,887.771 308.274,870.437 314.5,853.5C 324.887,830.447 341.553,813.78 364.5,803.5C 382.642,797.721 400.975,797.054 419.5,801.5 Z"/></g>
<g><path style="opacity:1" fill="#131438" d="M 686.5,798.5 C 698.327,807.994 707.994,819.327 715.5,832.5C 708.289,835.104 701.289,838.271 694.5,842C 692.365,842.876 691.031,844.376 690.5,846.5C 683.353,833.349 673.686,822.349 661.5,813.5C 669.403,809.211 677.403,804.878 685.5,800.5C 686.298,800.043 686.631,799.376 686.5,798.5 Z"/></g>
<g><path style="opacity:1" fill="#0e1135" d="M 420.5,778.5 C 434.344,782.255 447.011,788.422 458.5,797C 474.809,809.671 490.143,823.504 504.5,838.5C 505.124,838.917 505.457,839.584 505.5,840.5C 503.978,848.085 501.311,855.085 497.5,861.5C 489.369,852.868 481.036,844.368 472.5,836C 457.044,821.033 439.377,809.533 419.5,801.5C 420.492,794.018 420.825,786.352 420.5,778.5 Z"/></g>
<g><path style="opacity:1" fill="#121438" d="M 639.5,776.5 C 638.127,776.343 636.793,776.51 635.5,777C 627.568,782.928 620.235,789.595 613.5,797C 614.737,797.232 615.737,797.732 616.5,798.5C 603.653,797.769 591.32,799.936 579.5,805C 556.565,817.261 536.565,833.261 519.5,853C 525.033,858.198 530.2,863.698 535,869.5C 545.563,858.268 556.73,847.768 568.5,838C 575.613,832.777 583.28,828.611 591.5,825.5C 586.759,833.311 582.259,841.311 578,849.5C 577.26,850.749 577.427,851.749 578.5,852.5C 570.371,858.486 565.204,866.486 563,876.5C 560.143,891.557 563.143,905.224 572,917.5C 574.234,919.7 576.734,921.533 579.5,923C 599.877,923.81 620.21,923.643 640.5,922.5C 638.516,929.392 636.849,936.392 635.5,943.5C 635.957,944.298 636.624,944.631 637.5,944.5C 635.142,946.129 632.476,947.295 629.5,948C 619.555,950.638 609.555,950.971 599.5,949C 581.755,942.631 566.088,932.964 552.5,920C 533.596,900.932 515.262,881.432 497.5,861.5C 501.311,855.085 503.978,848.085 505.5,840.5C 505.457,839.584 505.124,838.917 504.5,838.5C 520.442,821.376 537.775,805.876 556.5,792C 582.179,775.295 609.846,770.129 639.5,776.5 Z"/></g>
<g><path style="opacity:1" fill="#0d1034" d="M 715.5,832.5 C 736.846,877.897 732.013,920.23 701,959.5C 682.452,980.359 659.285,992.693 631.5,996.5C 631.329,987.718 631.996,979.051 633.5,970.5C 651.048,965.976 665.882,956.976 678,943.5C 701.117,913.676 705.284,881.343 690.5,846.5C 691.031,844.376 692.365,842.876 694.5,842C 701.289,838.271 708.289,835.104 715.5,832.5 Z"/></g>
<g><path style="opacity:1" fill="#0d1034" d="M 486.5,883.5 C 484.024,891.125 480.024,897.792 474.5,903.5C 473.85,903.196 473.183,902.863 472.5,902.5C 456.402,921.196 437.402,936.03 415.5,947C 382.52,955.25 357.02,945.084 339,916.5C 325.565,886.012 330.731,859.178 354.5,836C 376.735,819.486 400.402,817.152 425.5,829C 448.759,843.752 469.092,861.918 486.5,883.5 Z"/></g>
<g><path style="opacity:1" fill="#fdfdfe" d="M 369.5,851.5 C 388.836,851.333 408.17,851.5 427.5,852C 437.923,857.321 444.089,865.821 446,877.5C 447.865,890.171 445.865,902.171 440,913.5C 436.663,917.847 432.496,921.014 427.5,923C 407.833,923.667 388.167,923.667 368.5,923C 358.855,916.902 353.355,908.069 352,896.5C 349.574,883.504 351.907,871.504 359,860.5C 362.103,856.886 365.603,853.886 369.5,851.5 Z"/></g>
<g><path style="opacity:1" fill="#fdfdfe" d="M 640.5,922.5 C 620.21,923.643 599.877,923.81 579.5,923C 576.734,921.533 574.234,919.7 572,917.5C 563.143,905.224 560.143,891.557 563,876.5C 565.204,866.486 570.371,858.486 578.5,852.5C 598.457,851.357 618.457,851.191 638.5,852C 648.825,857.347 654.992,865.847 657,877.5C 658.714,889.368 657.048,900.701 652,911.5C 648.956,916.045 645.123,919.711 640.5,922.5 Z"/></g>
<g><path style="opacity:1" fill="#0b0d32" d="M 284.5,851.5 C 294.361,854.286 304.361,854.953 314.5,853.5C 308.274,870.437 306.941,887.771 310.5,905.5C 309.411,907.117 307.744,907.95 305.5,908C 297.517,908.832 289.517,909.332 281.5,909.5C 278.065,889.903 279.065,870.569 284.5,851.5 Z"/></g>
<g><path style="opacity:1" fill="#0d1034" d="M 637.5,944.5 C 636.624,944.631 635.957,944.298 635.5,943.5C 636.849,936.392 638.516,929.392 640.5,922.5C 645.123,919.711 648.956,916.045 652,911.5C 657.048,900.701 658.714,889.368 657,877.5C 654.992,865.847 648.825,857.347 638.5,852C 618.457,851.191 598.457,851.357 578.5,852.5C 577.427,851.749 577.26,850.749 578,849.5C 582.259,841.311 586.759,833.311 591.5,825.5C 594.558,823.868 597.891,822.701 601.5,822C 608.167,821.333 614.833,821.333 621.5,822C 655.714,829.382 674.047,850.549 676.5,885.5C 675.225,913.081 662.225,932.748 637.5,944.5 Z"/></g>
<g><path style="opacity:1" fill="#121438" d="M 751.5,881.5 C 779.933,881.781 800.1,894.781 812,920.5C 821.115,949.551 814.281,974.051 791.5,994C 767.096,1010.21 742.43,1010.55 717.5,995C 713.939,991.927 710.272,989.094 706.5,986.5C 737.037,958.4 752.037,923.4 751.5,881.5 Z"/></g>
<g><path style="opacity:1" fill="#121438" d="M 258.5,909.5 C 261.123,924.371 266.123,938.371 273.5,951.5C 251.166,950.421 228.832,949.254 206.5,948C 164.197,943.672 121.863,939.672 79.5,936C 59.5,935.333 39.5,935.333 19.5,936C 12.7809,936.511 6.1142,937.345 -0.5,938.5C -0.5,924.833 -0.5,911.167 -0.5,897.5C 16.6203,895.854 33.787,894.854 51,894.5C 105.311,896.801 159.478,900.968 213.5,907C 228.48,908.254 243.48,909.088 258.5,909.5 Z"/></g>
<g><path style="opacity:1" fill="#0b0d32" d="M 273.5,951.5 C 280.951,965.284 290.617,977.284 302.5,987.5C 273.269,989.04 243.936,988.373 214.5,985.5C 214.522,1025.24 210.689,1064.57 203,1103.5C 185.173,1177.66 140.339,1227.49 68.5,1253C 46.1097,1260.32 23.1097,1263.48 -0.5,1262.5C -0.5,1245.83 -0.5,1229.17 -0.5,1212.5C 54.8035,1215.09 100.304,1195.42 136,1153.5C 150.093,1133.65 160.093,1111.98 166,1088.5C 173.3,1054.57 176.8,1020.24 176.5,985.5C 162.797,984.831 149.13,983.831 135.5,982.5C 136.227,1014.9 133.06,1046.9 126,1078.5C 110.623,1136.54 72.9559,1167.54 13,1171.5C 8.46528,1171.4 3.96528,1171.07 -0.5,1170.5C -0.5,1151.83 -0.5,1133.17 -0.5,1114.5C 31.1365,1119.27 54.6365,1107.6 70,1079.5C 80.7428,1050.64 74.9094,1025.81 52.5,1005C 36.7624,992.96 19.0957,988.794 -0.5,992.5C -0.5,974.5 -0.5,956.5 -0.5,938.5C 6.1142,937.345 12.7809,936.511 19.5,936C 39.5,935.333 59.5,935.333 79.5,936C 121.863,939.672 164.197,943.672 206.5,948C 228.832,949.254 251.166,950.421 273.5,951.5 Z"/></g>
<g><path style="opacity:1" fill="#0e1135" d="M 310.5,905.5 C 324.403,950.484 355.069,973.151 402.5,973.5C 403.239,973.369 403.906,973.536 404.5,974C 388.003,977.457 372.003,982.457 356.5,989C 354.527,989.495 352.527,989.662 350.5,989.5C 314.005,974.532 291.005,947.866 281.5,909.5C 289.517,909.332 297.517,908.832 305.5,908C 307.744,907.95 309.411,907.117 310.5,905.5 Z"/></g>
<g><path style="opacity:1" fill="#191b3e" d="M 466.5,967.5 C 432.136,997.45 393.469,1004.78 350.5,989.5C 352.527,989.662 354.527,989.495 356.5,989C 372.003,982.457 388.003,977.457 404.5,974C 403.906,973.536 403.239,973.369 402.5,973.5C 407.048,972.509 411.715,971.509 416.5,970.5C 422.375,971.024 428.375,970.524 434.5,969C 445.154,968.167 455.82,967.667 466.5,967.5 Z"/></g>
<g><path style="opacity:1" fill="#131438" d="M 553.5,1004.5 C 552.532,1006.61 552.198,1008.94 552.5,1011.5C 515.836,1008.12 479.169,1007.79 442.5,1010.5C 465.354,998.827 485.854,983.827 504,965.5C 519.24,980.256 535.74,993.256 553.5,1004.5 Z"/></g>
<g><path style="opacity:1" fill="#111337" d="M 486.5,883.5 C 503.206,902.71 520.872,921.21 539.5,939C 548.476,946.487 557.809,953.487 567.5,960C 588.059,972.865 610.059,976.365 633.5,970.5C 631.996,979.051 631.329,987.718 631.5,996.5C 608.569,999.759 586.902,995.926 566.5,985C 543.325,970.509 522.492,953.009 504,932.5C 492.233,945.106 479.733,956.772 466.5,967.5C 455.82,967.667 445.154,968.167 434.5,969C 428.375,970.524 422.375,971.024 416.5,970.5C 421.499,968.777 426.499,966.944 431.5,965C 453.784,953.03 472.618,937.197 488,917.5C 483.297,912.965 478.797,908.298 474.5,903.5C 480.024,897.792 484.024,891.125 486.5,883.5 Z"/></g>
<g><path style="opacity:1" fill="#111337" d="M -0.5,1212.5 C -0.5,1198.5 -0.5,1184.5 -0.5,1170.5C 3.96528,1171.07 8.46528,1171.4 13,1171.5C 72.9559,1167.54 110.623,1136.54 126,1078.5C 133.06,1046.9 136.227,1014.9 135.5,982.5C 149.13,983.831 162.797,984.831 176.5,985.5C 176.8,1020.24 173.3,1054.57 166,1088.5C 160.093,1111.98 150.093,1133.65 136,1153.5C 100.304,1195.42 54.8035,1215.09 -0.5,1212.5 Z"/></g>
<g><path style="opacity:1" fill="#111437" d="M 302.5,987.5 C 309.643,993.573 317.31,998.906 325.5,1003.5C 325.586,1004.5 325.252,1005.33 324.5,1006C 313.646,1012.52 303.646,1020.18 294.5,1029C 306.86,1029.72 319.193,1029.38 331.5,1028C 347.276,1026.08 362.943,1023.58 378.5,1020.5C 381.833,1020.5 385.167,1020.5 388.5,1020.5C 359.313,1030.43 333.98,1046.43 312.5,1068.5C 305.409,1069.26 301.743,1073.26 301.5,1080.5C 299.552,1082.79 297.552,1085.12 295.5,1087.5C 296.602,1088.18 297.602,1088.84 298.5,1089.5C 293.5,1089.5 288.5,1089.5 283.5,1089.5C 283.5,1080.17 283.5,1070.83 283.5,1061.5C 282.167,1061.5 280.833,1061.5 279.5,1061.5C 279.5,1071.83 279.5,1082.17 279.5,1092.5C 283.5,1092.5 287.5,1092.5 291.5,1092.5C 246.949,1159.6 241.449,1229.93 275,1303.5C 299.803,1349.63 336.636,1382.46 385.5,1402C 464.225,1427.69 534.558,1413.52 596.5,1359.5C 583.618,1377.92 572.784,1397.59 564,1418.5C 562.026,1423.41 560.693,1428.41 560,1433.5C 584.509,1421.8 606.675,1406.8 626.5,1388.5C 584.606,1451.78 577.773,1518.78 606,1589.5C 644.169,1666.36 706.336,1706.69 792.5,1710.5C 859.666,1708.5 913.833,1681.17 955,1628.5C 978.551,1593.19 992.217,1554.19 996,1511.5C 998.63,1485.9 1000.3,1460.23 1001,1434.5C 1003.38,1433.56 1005.88,1433.23 1008.5,1433.5C 1008.5,1496.17 1008.5,1558.83 1008.5,1621.5C 975.001,1682.82 924.667,1723.32 857.5,1743C 772.926,1763.23 697.26,1745.89 630.5,1691C 565.497,1630 538.997,1555.17 551,1466.5C 552.718,1455.96 555.218,1445.63 558.5,1435.5C 558,1435.17 557.5,1434.83 557,1434.5C 508.649,1455.53 458.483,1461.03 406.5,1451C 312.114,1427.62 250.281,1369.45 221,1276.5C 213.245,1247.95 210.579,1218.95 213,1189.5C 162.518,1265.67 91.351,1304 -0.5,1304.5C -0.5,1290.5 -0.5,1276.5 -0.5,1262.5C 23.1097,1263.48 46.1097,1260.32 68.5,1253C 140.339,1227.49 185.173,1177.66 203,1103.5C 210.689,1064.57 214.522,1025.24 214.5,985.5C 243.936,988.373 273.269,989.04 302.5,987.5 Z"/></g>
<g><path style="opacity:1" fill="#111337" d="M -0.5,1114.5 C -0.5,1073.83 -0.5,1033.17 -0.5,992.5C 19.0957,988.794 36.7624,992.96 52.5,1005C 74.9094,1025.81 80.7428,1050.64 70,1079.5C 54.6365,1107.6 31.1365,1119.27 -0.5,1114.5 Z"/></g>
<g><path style="opacity:1" fill="#191b3e" d="M 325.5,1003.5 C 342.169,1012.61 359.836,1018.28 378.5,1020.5C 362.943,1023.58 347.276,1026.08 331.5,1028C 319.193,1029.38 306.86,1029.72 294.5,1029C 303.646,1020.18 313.646,1012.52 324.5,1006C 325.252,1005.33 325.586,1004.5 325.5,1003.5 Z"/></g>
<g><path style="opacity:1" fill="#181a3d" d="M 956.5,1084.5 C 947.793,1093.87 939.459,1103.54 931.5,1113.5C 912.077,1131.39 890.41,1146.05 866.5,1157.5C 865.386,1156.28 865.219,1154.94 866,1153.5C 874.195,1129.03 885.695,1106.36 900.5,1085.5C 908.471,1076.53 916.471,1067.53 924.5,1058.5C 944.819,1039.25 967.652,1023.58 993,1011.5C 985.132,1037.9 972.965,1062.24 956.5,1084.5 Z"/></g>
<g><path style="opacity:1" fill="#0b0d32" d="M 1008.5,1049.5 C 1008.5,1067.17 1008.5,1084.83 1008.5,1102.5C 972.286,1124.57 948.786,1156.24 938,1197.5C 929.079,1233.29 925.246,1269.62 926.5,1306.5C 939.775,1307.97 953.109,1308.97 966.5,1309.5C 965.866,1275.3 969.699,1241.63 978,1208.5C 981.541,1196.74 986.208,1185.41 992,1174.5C 996.802,1167.21 1002.3,1160.54 1008.5,1154.5C 1008.5,1221.17 1008.5,1287.83 1008.5,1354.5C 964.144,1350.94 919.811,1347.1 875.5,1343C 852.833,1342.33 830.167,1342.33 807.5,1343C 771.292,1344.1 737.625,1353.77 706.5,1372C 656.723,1410.21 635.223,1460.71 642,1523.5C 653.034,1585.53 687.867,1628.03 746.5,1651C 804.977,1668.9 857.643,1658.56 904.5,1620C 928.479,1596.88 944.312,1569.05 952,1536.5C 959.392,1502.24 963.225,1467.58 963.5,1432.5C 949.485,1432.12 935.485,1431.45 921.5,1430.5C 923.568,1473.66 917.068,1515.32 902,1555.5C 883.099,1591.03 853.599,1611.86 813.5,1618C 761.225,1621.71 721.725,1601.21 695,1556.5C 674.186,1512.48 677.519,1470.48 705,1430.5C 726.949,1403.44 755.449,1388.27 790.5,1385C 812.444,1382.65 834.444,1381.98 856.5,1383C 907.226,1386.96 957.893,1391.46 1008.5,1396.5C 1008.5,1408.83 1008.5,1421.17 1008.5,1433.5C 1005.88,1433.23 1003.38,1433.56 1001,1434.5C 1000.3,1460.23 998.63,1485.9 996,1511.5C 992.217,1554.19 978.551,1593.19 955,1628.5C 913.833,1681.17 859.666,1708.5 792.5,1710.5C 706.336,1706.69 644.169,1666.36 606,1589.5C 577.773,1518.78 584.606,1451.78 626.5,1388.5C 634.822,1378.18 643.489,1368.18 652.5,1358.5C 686.659,1328.27 726.659,1310.77 772.5,1306C 787.969,1304.59 803.469,1303.76 819,1303.5C 841.848,1304.23 864.682,1305.23 887.5,1306.5C 887.399,1265.36 891.566,1224.69 900,1184.5C 906.65,1159.05 917.15,1135.38 931.5,1113.5C 939.459,1103.54 947.793,1093.87 956.5,1084.5C 972.194,1070.49 989.527,1058.82 1008.5,1049.5 Z"/></g>
<g><path style="opacity:1" fill="#e8e8eb" d="M 703.5,1061.5 C 703.334,1067.18 703.501,1072.84 704,1078.5C 706.312,1075.35 708.812,1072.35 711.5,1069.5C 713.074,1068.37 714.741,1068.2 716.5,1069C 713.618,1072.59 710.618,1076.09 707.5,1079.5C 710.643,1083.81 713.977,1087.98 717.5,1092C 715.833,1092.67 714.167,1092.67 712.5,1092C 709.667,1088.5 706.833,1085 704,1081.5C 703.501,1085.15 703.335,1088.82 703.5,1092.5C 702.167,1092.5 700.833,1092.5 699.5,1092.5C 699.5,1081.83 699.5,1071.17 699.5,1060.5C 699.917,1059.88 700.584,1059.54 701.5,1059.5C 702.713,1059.75 703.38,1060.41 703.5,1061.5 Z"/></g>
<g><path style="opacity:1" fill="#e8e8eb" d="M 736.5,1060.5 C 736.5,1070.17 736.5,1079.83 736.5,1089.5C 737.833,1089.5 739.167,1089.5 740.5,1089.5C 740.5,1090.5 740.5,1091.5 740.5,1092.5C 738.473,1092.66 736.473,1092.5 734.5,1092C 733.874,1091.25 733.374,1090.42 733,1089.5C 732.5,1080.17 732.334,1070.84 732.5,1061.5C 732.62,1060.41 733.287,1059.75 734.5,1059.5C 735.416,1059.54 736.083,1059.88 736.5,1060.5 Z"/></g>
<g><path style="opacity:1" fill="#fcfcfd" d="M 745.5,1059.5 C 746.5,1059.5 747.5,1059.5 748.5,1059.5C 748.334,1069.17 748.5,1078.84 749,1088.5C 750.011,1089.34 751.178,1089.67 752.5,1089.5C 752.5,1090.5 752.5,1091.5 752.5,1092.5C 749.956,1092.9 747.789,1092.23 746,1090.5C 745.5,1080.17 745.334,1069.84 745.5,1059.5 Z"/></g>
<g><path style="opacity:1" fill="#eaeaed" d="M 438.5,1059.5 C 442.161,1059.35 443.161,1060.85 441.5,1064C 437.707,1064.49 436.707,1062.99 438.5,1059.5 Z"/></g>
<g><path style="opacity:1" fill="#ededf0" d="M 725.5,1061.5 C 725.582,1063.25 724.749,1064.25 723,1064.5C 721.251,1064.25 720.418,1063.25 720.5,1061.5C 722.167,1058.83 723.833,1058.83 725.5,1061.5 Z"/></g>
<g><path style="opacity:1" fill="#f2f2f4" d="M 298.5,1089.5 C 298.5,1090.5 298.5,1091.5 298.5,1092.5C 296.167,1092.5 293.833,1092.5 291.5,1092.5C 287.5,1092.5 283.5,1092.5 279.5,1092.5C 279.5,1082.17 279.5,1071.83 279.5,1061.5C 280.833,1061.5 282.167,1061.5 283.5,1061.5C 283.5,1070.83 283.5,1080.17 283.5,1089.5C 288.5,1089.5 293.5,1089.5 298.5,1089.5 Z"/></g>
<g><path style="opacity:1" fill="#ebebee" d="M 426.5,1092.5 C 426.5,1087.17 426.5,1081.83 426.5,1076.5C 420.974,1076.18 415.64,1076.51 410.5,1077.5C 410.5,1082.5 410.5,1087.5 410.5,1092.5C 409.167,1092.5 407.833,1092.5 406.5,1092.5C 406.5,1082.17 406.5,1071.83 406.5,1061.5C 407.833,1061.5 409.167,1061.5 410.5,1061.5C 410.5,1065.5 410.5,1069.5 410.5,1073.5C 415.833,1073.5 421.167,1073.5 426.5,1073.5C 426.5,1069.5 426.5,1065.5 426.5,1061.5C 427.833,1061.5 429.167,1061.5 430.5,1061.5C 430.5,1071.83 430.5,1082.17 430.5,1092.5C 429.167,1092.5 427.833,1092.5 426.5,1092.5 Z"/></g>
<g><path style="opacity:1" fill="#e6e6ea" d="M 514.5,1092.5 C 513.167,1092.5 511.833,1092.5 510.5,1092.5C 510.5,1090.83 510.5,1089.17 510.5,1087.5C 510.5,1078.83 510.5,1070.17 510.5,1061.5C 511.833,1061.5 513.167,1061.5 514.5,1061.5C 514.5,1071.83 514.5,1082.17 514.5,1092.5 Z"/></g>
<g><path style="opacity:1" fill="#e4e4e8" d="M 677.5,1061.5 C 680.85,1061.33 684.183,1061.5 687.5,1062C 689.555,1062.69 691.221,1063.85 692.5,1065.5C 691.187,1067.89 689.52,1068.05 687.5,1066C 684.5,1065.33 681.5,1065.33 678.5,1066C 675.833,1068.33 675.833,1070.67 678.5,1073C 682.608,1074.03 686.608,1075.36 690.5,1077C 693.265,1079.99 694.098,1083.49 693,1087.5C 691.891,1089.81 690.057,1091.31 687.5,1092C 680.992,1093.83 675.659,1092.16 671.5,1087C 672.333,1086.17 673.167,1085.33 674,1084.5C 678.547,1088.89 683.547,1089.56 689,1086.5C 689.896,1083.97 689.396,1081.81 687.5,1080C 681.843,1079.01 677.01,1076.51 673,1072.5C 671.776,1067.63 673.276,1063.96 677.5,1061.5 Z"/></g>
<g><path style="opacity:1" fill="#eaebee" d="M 331.5,1068.5 C 335.839,1067.85 339.673,1068.85 343,1071.5C 343.333,1077.17 343.667,1082.83 344,1088.5C 345.011,1089.34 346.178,1089.67 347.5,1089.5C 347.5,1090.5 347.5,1091.5 347.5,1092.5C 344.71,1092.78 342.21,1092.11 340,1090.5C 329.873,1095.18 325.706,1092.18 327.5,1081.5C 331.968,1079.48 336.301,1077.31 340.5,1075C 338.842,1071.7 336.175,1070.7 332.5,1072C 331.333,1073.17 330.167,1074.33 329,1075.5C 327.635,1074.41 327.301,1073.07 328,1071.5C 329.145,1070.36 330.312,1069.36 331.5,1068.5 Z"/></g>
<g><path style="opacity:1" fill="#eaeaee" d="M 355.5,1088.5 C 355.5,1089.83 355.5,1091.17 355.5,1092.5C 354.167,1092.5 352.833,1092.5 351.5,1092.5C 351.5,1084.5 351.5,1076.5 351.5,1068.5C 353.451,1068.23 354.951,1068.89 356,1070.5C 358.565,1068.82 361.398,1068.15 364.5,1068.5C 364.5,1069.5 364.5,1070.5 364.5,1071.5C 361.03,1070.87 358.196,1071.87 356,1074.5C 355.501,1079.15 355.334,1083.82 355.5,1088.5 Z"/></g>
<g><path style="opacity:1" fill="#e8e9ec" d="M 384.5,1068.5 C 385.458,1069.96 386.624,1071.29 388,1072.5C 388.5,1079.16 388.666,1085.83 388.5,1092.5C 387.167,1092.5 385.833,1092.5 384.5,1092.5C 384.666,1086.16 384.5,1079.82 384,1073.5C 379.981,1070.57 376.647,1071.24 374,1075.5C 373.501,1081.16 373.334,1086.82 373.5,1092.5C 372.167,1092.5 370.833,1092.5 369.5,1092.5C 369.5,1087.83 369.5,1083.17 369.5,1078.5C 369.5,1075.17 369.5,1071.83 369.5,1068.5C 370.5,1068.5 371.5,1068.5 372.5,1068.5C 372.343,1069.87 372.51,1071.21 373,1072.5C 375.944,1068.89 379.777,1067.55 384.5,1068.5 Z"/></g>
<g><path style="opacity:1" fill="#e7e7eb" d="M 442.5,1091.5 C 441.432,1092.43 440.099,1092.77 438.5,1092.5C 438.5,1084.5 438.5,1076.5 438.5,1068.5C 439.833,1068.5 441.167,1068.5 442.5,1068.5C 442.5,1076.17 442.5,1083.83 442.5,1091.5 Z"/></g>
<g><path style="opacity:1" fill="#f0f0f3" d="M 542.5,1088.5 C 542.5,1089.83 542.5,1091.17 542.5,1092.5C 541.167,1092.5 539.833,1092.5 538.5,1092.5C 538.666,1086.16 538.5,1079.82 538,1073.5C 533.155,1070.2 529.488,1071.2 527,1076.5C 526.501,1081.82 526.334,1087.16 526.5,1092.5C 525.5,1092.5 524.5,1092.5 523.5,1092.5C 523.5,1084.5 523.5,1076.5 523.5,1068.5C 524.5,1068.5 525.5,1068.5 526.5,1068.5C 526.343,1069.87 526.51,1071.21 527,1072.5C 531.3,1067.55 535.967,1067.22 541,1071.5C 542.404,1077.04 542.904,1082.71 542.5,1088.5 Z"/></g>
<g><path style="opacity:1" fill="#eaeaee" d="M 565.5,1090.5 C 560.256,1093.38 555.256,1093.05 550.5,1089.5C 550.291,1088.08 549.791,1086.74 549,1085.5C 546.534,1071.63 552.034,1066.46 565.5,1070C 568.105,1071.93 568.105,1073.76 565.5,1075.5C 561.292,1070.22 557.125,1070.22 553,1075.5C 552.333,1078.83 552.333,1082.17 553,1085.5C 557.705,1090.96 562.038,1090.63 566,1084.5C 567.91,1086.63 567.743,1088.63 565.5,1090.5 Z"/></g>
<g><path style="opacity:1" fill="#ebebee" d="M 586.5,1092.5 C 583.061,1092.75 579.728,1092.41 576.5,1091.5C 569.938,1084.3 569.938,1077.13 576.5,1070C 584.183,1066.89 589.683,1069.06 593,1076.5C 594.617,1083.5 592.45,1088.84 586.5,1092.5 Z"/></g>
<g><path style="opacity:1" fill="#e8e8eb" d="M 599.5,1068.5 C 600.833,1068.5 602.167,1068.5 603.5,1068.5C 603.443,1072.13 604.443,1072.3 606.5,1069C 610.942,1067.62 614.442,1068.79 617,1072.5C 621.761,1067.19 626.428,1067.19 631,1072.5C 631.5,1079.16 631.666,1085.83 631.5,1092.5C 630.167,1092.5 628.833,1092.5 627.5,1092.5C 627.666,1086.16 627.5,1079.82 627,1073.5C 623.308,1070.67 620.308,1071.34 618,1075.5C 617.501,1081.16 617.334,1086.82 617.5,1092.5C 616.167,1092.5 614.833,1092.5 613.5,1092.5C 613.666,1086.16 613.5,1079.82 613,1073.5C 609.195,1070.46 606.195,1071.13 604,1075.5C 603.501,1081.16 603.334,1086.82 603.5,1092.5C 602.167,1092.5 600.833,1092.5 599.5,1092.5C 599.5,1084.5 599.5,1076.5 599.5,1068.5 Z"/></g>
<g><path style="opacity:1" fill="#ececef" d="M 643.5,1068.5 C 653.67,1067 658.336,1071.34 657.5,1081.5C 652.167,1081.5 646.833,1081.5 641.5,1081.5C 643.55,1090.42 648.05,1091.75 655,1085.5C 655.925,1086.05 656.758,1086.71 657.5,1087.5C 653.978,1092.19 649.311,1093.69 643.5,1092C 640.337,1090.52 638.504,1088.02 638,1084.5C 636.212,1077.78 638.045,1072.44 643.5,1068.5 Z"/></g>
<g><path style="opacity:1" fill="#fefffe" d="M 721.5,1068.5 C 722.5,1068.5 723.5,1068.5 724.5,1068.5C 724.5,1076.5 724.5,1084.5 724.5,1092.5C 723.5,1092.5 722.5,1092.5 721.5,1092.5C 721.5,1084.5 721.5,1076.5 721.5,1068.5 Z"/></g>
<g><path style="opacity:1" fill="#eaeaed" d="M 759.5,1068.5 C 763.584,1068.04 767.417,1068.71 771,1070.5C 771.483,1071.45 771.649,1072.45 771.5,1073.5C 768.972,1072.99 766.472,1072.32 764,1071.5C 760.255,1071.88 759.089,1073.72 760.5,1077C 764.298,1077.96 767.965,1079.29 771.5,1081C 773.053,1084.57 772.72,1087.9 770.5,1091C 765.281,1093.41 760.447,1092.91 756,1089.5C 755.383,1088.55 755.549,1087.72 756.5,1087C 759.089,1087.37 761.589,1088.2 764,1089.5C 769.346,1089.21 770.513,1087.04 767.5,1083C 763.599,1082.32 760.099,1080.82 757,1078.5C 755.861,1074.58 756.695,1071.25 759.5,1068.5 Z"/></g>
<g><path style="opacity:1" fill="#ebebee" d="M 312.5,1068.5 C 320.255,1069.27 323.588,1073.6 322.5,1081.5C 317.167,1081.5 311.833,1081.5 306.5,1081.5C 306.34,1083.2 306.506,1084.87 307,1086.5C 311.474,1090.62 315.64,1090.28 319.5,1085.5C 320.5,1085.83 321.167,1086.5 321.5,1087.5C 320.307,1089.53 318.64,1091.03 316.5,1092C 307.32,1093.66 302.32,1089.82 301.5,1080.5C 301.743,1073.26 305.409,1069.26 312.5,1068.5 Z"/></g>
<g><path style="opacity:1" fill="#e6e6ea" d="M 492.5,1087.5 C 492.5,1089.17 492.5,1090.83 492.5,1092.5C 491.167,1092.5 489.833,1092.5 488.5,1092.5C 488.666,1086.16 488.5,1079.82 488,1073.5C 483.981,1070.57 480.647,1071.24 478,1075.5C 477.501,1081.16 477.334,1086.82 477.5,1092.5C 476.167,1092.5 474.833,1092.5 473.5,1092.5C 473.5,1090.83 473.5,1089.17 473.5,1087.5C 473.5,1078.17 473.5,1068.83 473.5,1059.5C 474.833,1059.5 476.167,1059.5 477.5,1059.5C 477.334,1063.51 477.501,1067.51 478,1071.5C 482.958,1067.29 487.625,1067.62 492,1072.5C 492.499,1077.49 492.666,1082.49 492.5,1087.5 Z"/></g>
<g><path style="opacity:1" fill="#191a3d" d="M 644.5,1071.5 C 650.275,1070.56 653.275,1072.89 653.5,1078.5C 649.5,1078.5 645.5,1078.5 641.5,1078.5C 641.688,1075.79 642.688,1073.46 644.5,1071.5 Z"/></g>
<g><path style="opacity:1" fill="#141639" d="M 309.5,1071.5 C 315.092,1070.77 318.092,1073.11 318.5,1078.5C 314.116,1078.83 309.783,1078.49 305.5,1077.5C 306.467,1075.21 307.8,1073.21 309.5,1071.5 Z"/></g>
<g><path style="opacity:1" fill="#1a1a3e" d="M 579.5,1071.5 C 587.982,1071.77 591.149,1076.1 589,1084.5C 587.053,1088.56 583.886,1090.06 579.5,1089C 574.27,1083.06 574.27,1077.23 579.5,1071.5 Z"/></g>
<g><path style="opacity:1" fill="#565771" d="M 410.5,1077.5 C 415.64,1076.51 420.974,1076.18 426.5,1076.5C 426.5,1081.83 426.5,1087.17 426.5,1092.5C 425.513,1087.69 425.179,1082.69 425.5,1077.5C 420.5,1077.5 415.5,1077.5 410.5,1077.5 Z"/></g>
<g><path style="opacity:1" fill="#131639" d="M 338.5,1080.5 C 340.874,1082.4 341.041,1084.73 339,1087.5C 332.328,1091.38 329.828,1089.71 331.5,1082.5C 333.982,1081.93 336.316,1081.27 338.5,1080.5 Z"/></g>
<g><path style="opacity:1" fill="#e5e5e9" d="M 464.5,1089.5 C 466.017,1089.51 467.184,1090.18 468,1091.5C 469.643,1096.43 468.143,1099.93 463.5,1102C 459.5,1102.67 455.5,1102.67 451.5,1102C 447.676,1099.7 446.676,1096.54 448.5,1092.5C 449.473,1092.01 450.473,1091.51 451.5,1091C 448.735,1088.03 449.068,1085.37 452.5,1083C 451.299,1082.1 450.465,1080.93 450,1079.5C 449.203,1070.14 453.369,1066.81 462.5,1069.5C 463.429,1068.31 463.762,1066.98 463.5,1065.5C 464.833,1065.5 466.167,1065.5 467.5,1065.5C 467.415,1067.93 466.415,1069.93 464.5,1071.5C 468.099,1080.77 464.765,1085.27 454.5,1085C 453.663,1086.01 453.33,1087.18 453.5,1088.5C 457.269,1088.24 460.936,1088.58 464.5,1089.5 Z"/></g>
<g><path style="opacity:1" fill="#18193c" d="M 455.5,1071.5 C 462.048,1071.21 464.048,1074.04 461.5,1080C 455.086,1082.59 452.586,1080.43 454,1073.5C 454.717,1072.96 455.217,1072.29 455.5,1071.5 Z"/></g>
<g><path style="opacity:1" fill="#121538" d="M 452.5,1092.5 C 456.182,1092.33 459.848,1092.5 463.5,1093C 464.554,1094.39 464.72,1095.89 464,1097.5C 460.704,1099.3 457.204,1099.8 453.5,1099C 451.316,1097.1 450.983,1094.94 452.5,1092.5 Z"/></g>
<g><path style="opacity:1" fill="#111337" d="M 1008.5,1102.5 C 1008.5,1119.83 1008.5,1137.17 1008.5,1154.5C 1002.3,1160.54 996.802,1167.21 992,1174.5C 986.208,1185.41 981.541,1196.74 978,1208.5C 969.699,1241.63 965.866,1275.3 966.5,1309.5C 953.109,1308.97 939.775,1307.97 926.5,1306.5C 925.246,1269.62 929.079,1233.29 938,1197.5C 948.786,1156.24 972.286,1124.57 1008.5,1102.5 Z"/></g>
<g><path style="opacity:1" fill="#e7e7eb" d="M 335.5,1112.5 C 341.632,1111.25 346.632,1112.92 350.5,1117.5C 350.167,1118.5 349.5,1119.17 348.5,1119.5C 346.869,1117.7 344.869,1116.54 342.5,1116C 334.988,1114.68 331.321,1117.84 331.5,1125.5C 331.555,1135.36 336.222,1138.53 345.5,1135C 346.219,1132.44 347.886,1131.28 350.5,1131.5C 349.857,1134.99 347.857,1137.49 344.5,1139C 332.81,1141.14 327.144,1136.31 327.5,1124.5C 328.192,1119.1 330.859,1115.1 335.5,1112.5 Z"/></g>
<g><path style="opacity:1" fill="#eaeaed" d="M 599.5,1124.5 C 599.5,1129.5 599.5,1134.5 599.5,1139.5C 598.5,1139.5 597.5,1139.5 596.5,1139.5C 596.649,1138.45 596.483,1137.45 596,1136.5C 593.358,1139.03 590.192,1140.03 586.5,1139.5C 582.732,1138.86 579.899,1136.86 578,1133.5C 573.719,1121.75 577.553,1114.75 589.5,1112.5C 593.925,1112.05 597.258,1113.71 599.5,1117.5C 599,1117.83 598.5,1118.17 598,1118.5C 585.624,1112.18 579.957,1115.84 581,1129.5C 581.406,1132.49 582.906,1134.66 585.5,1136C 592.942,1137.82 596.609,1134.99 596.5,1127.5C 593.833,1127.5 591.167,1127.5 588.5,1127.5C 588.5,1126.5 588.5,1125.5 588.5,1124.5C 592.167,1124.5 595.833,1124.5 599.5,1124.5 Z"/></g>
<g><path style="opacity:1" fill="#e3e3e8" d="M 482.5,1120.5 C 480.167,1120.5 477.833,1120.5 475.5,1120.5C 475.181,1125.36 475.514,1130.03 476.5,1134.5C 477.932,1136.65 479.765,1136.98 482,1135.5C 483.98,1138.55 482.98,1139.89 479,1139.5C 476.333,1139.83 474.333,1138.83 473,1136.5C 472.501,1131.51 472.334,1126.51 472.5,1121.5C 471.167,1121.5 469.833,1121.5 468.5,1121.5C 468.5,1120.5 468.5,1119.5 468.5,1118.5C 469.833,1118.5 471.167,1118.5 472.5,1118.5C 472.5,1116.83 472.5,1115.17 472.5,1113.5C 473.833,1113.5 475.167,1113.5 476.5,1113.5C 476.5,1115.17 476.5,1116.83 476.5,1118.5C 479.082,1118.03 481.082,1118.69 482.5,1120.5 Z"/></g>
<g><path style="opacity:1" fill="#111337" d="M 900.5,1085.5 C 885.695,1106.36 874.195,1129.03 866,1153.5C 865.219,1154.94 865.386,1156.28 866.5,1157.5C 890.41,1146.05 912.077,1131.39 931.5,1113.5C 917.15,1135.38 906.65,1159.05 900,1184.5C 891.566,1224.69 887.399,1265.36 887.5,1306.5C 864.682,1305.23 841.848,1304.23 819,1303.5C 803.469,1303.76 787.969,1304.59 772.5,1306C 726.659,1310.77 686.659,1328.27 652.5,1358.5C 668.589,1336.66 680.089,1312.66 687,1286.5C 661.88,1298.46 639.38,1314.13 619.5,1333.5C 636.64,1308.29 648.474,1280.62 655,1250.5C 661.381,1213.78 664.881,1176.78 665.5,1139.5C 666.778,1139.22 667.778,1138.55 668.5,1137.5C 699.764,1140.21 731.097,1141.05 762.5,1140C 815.419,1138.54 861.419,1120.38 900.5,1085.5 Z"/></g>
<g><path style="opacity:1" fill="#ecedef" d="M 373.5,1131.5 C 372.974,1135.7 370.641,1138.36 366.5,1139.5C 362.599,1140.14 359.266,1139.14 356.5,1136.5C 353.018,1129.72 354.018,1123.89 359.5,1119C 369.73,1117.07 374.397,1121.23 373.5,1131.5 Z"/></g>
<g><path style="opacity:1" fill="#eeeef1" d="M 386.5,1118.5 C 390.287,1117.81 393.454,1118.81 396,1121.5C 396.499,1127.49 396.666,1133.49 396.5,1139.5C 395.5,1139.5 394.5,1139.5 393.5,1139.5C 393.666,1134.16 393.499,1128.82 393,1123.5C 389.027,1120.56 385.693,1121.23 383,1125.5C 382.501,1130.15 382.334,1134.82 382.5,1139.5C 381.5,1139.5 380.5,1139.5 379.5,1139.5C 379.5,1134.5 379.5,1129.5 379.5,1124.5C 379.5,1122.5 379.5,1120.5 379.5,1118.5C 380.5,1118.5 381.5,1118.5 382.5,1118.5C 382.351,1119.55 382.517,1120.55 383,1121.5C 384.145,1120.36 385.312,1119.36 386.5,1118.5 Z"/></g>
<g><path style="opacity:1" fill="#dbdbe1" d="M 403.5,1118.5 C 405.451,1118.23 406.951,1118.89 408,1120.5C 413.006,1117.36 417.339,1118.02 421,1122.5C 421.499,1128.16 421.666,1133.82 421.5,1139.5C 420.167,1139.5 418.833,1139.5 417.5,1139.5C 417.666,1133.82 417.499,1128.16 417,1122.5C 413.431,1120.82 410.431,1121.48 408,1124.5C 407.501,1129.49 407.334,1134.49 407.5,1139.5C 406.167,1139.5 404.833,1139.5 403.5,1139.5C 403.5,1132.5 403.5,1125.5 403.5,1118.5 Z"/></g>
<g><path style="opacity:1" fill="#e9e9ed" d="M 431.5,1118.5 C 440.556,1116.9 444.889,1120.57 444.5,1129.5C 439.833,1129.5 435.167,1129.5 430.5,1129.5C 430.573,1135.55 433.573,1137.71 439.5,1136C 440.898,1133.44 442.565,1133.1 444.5,1135C 442.768,1138.45 439.934,1139.95 436,1139.5C 427.713,1137.95 424.713,1132.95 427,1124.5C 428.332,1122.34 429.832,1120.34 431.5,1118.5 Z"/></g>
<g><path style="opacity:1" fill="#e6e6ea" d="M 454.5,1118.5 C 457.187,1118.34 459.854,1118.5 462.5,1119C 466.302,1120.18 466.968,1122.01 464.5,1124.5C 460.628,1120.54 456.795,1120.54 453,1124.5C 451.989,1128.78 452.823,1132.61 455.5,1136C 459.627,1137.29 462.794,1136.13 465,1132.5C 467.179,1135.62 466.345,1137.79 462.5,1139C 452.071,1140.57 447.571,1136.07 449,1125.5C 449.967,1122.38 451.8,1120.05 454.5,1118.5 Z"/></g>
<g><path style="opacity:1" fill="#e4e4e8" d="M 500.5,1118.5 C 504.257,1118.07 507.757,1118.74 511,1120.5C 511.499,1125.82 511.666,1131.16 511.5,1136.5C 512.5,1136.5 513.5,1136.5 514.5,1136.5C 514.5,1137.5 514.5,1138.5 514.5,1139.5C 511.762,1140.04 509.928,1139.04 509,1136.5C 504.667,1140.5 500.333,1140.5 496,1136.5C 495.294,1134.03 495.627,1131.7 497,1129.5C 500.215,1127.54 503.715,1126.37 507.5,1126C 509.166,1122.87 508.166,1121.37 504.5,1121.5C 501.889,1121.56 499.722,1122.56 498,1124.5C 497.308,1123.97 496.808,1123.31 496.5,1122.5C 497.549,1120.78 498.882,1119.45 500.5,1118.5 Z"/></g>
<g><path style="opacity:1" fill="#d9d9df" d="M 518.5,1118.5 C 519.833,1118.5 521.167,1118.5 522.5,1118.5C 522.443,1122.13 523.443,1122.3 525.5,1119C 528.916,1118.11 532.083,1118.61 535,1120.5C 536.416,1126.71 536.916,1133.05 536.5,1139.5C 535.167,1139.5 533.833,1139.5 532.5,1139.5C 532.666,1133.82 532.499,1128.16 532,1122.5C 528.475,1120.81 525.475,1121.48 523,1124.5C 522.501,1129.49 522.334,1134.49 522.5,1139.5C 521.167,1139.5 519.833,1139.5 518.5,1139.5C 518.5,1132.5 518.5,1125.5 518.5,1118.5 Z"/></g>
<g><path style="opacity:1" fill="#f6f6f7" d="M 606.5,1118.5 C 607.5,1118.5 608.5,1118.5 609.5,1118.5C 609.351,1119.55 609.517,1120.55 610,1121.5C 612.153,1118.88 614.987,1117.88 618.5,1118.5C 618.5,1119.5 618.5,1120.5 618.5,1121.5C 615.03,1120.87 612.196,1121.87 610,1124.5C 609.501,1128.49 609.334,1132.49 609.5,1136.5C 609.5,1137.5 609.5,1138.5 609.5,1139.5C 608.5,1139.5 607.5,1139.5 606.5,1139.5C 606.5,1132.5 606.5,1125.5 606.5,1118.5 Z"/></g>
<g><path style="opacity:1" fill="#ececef" d="M 627.5,1139.5 C 625.611,1138.4 623.945,1137.06 622.5,1135.5C 621.473,1131.55 621.306,1127.55 622,1123.5C 627.924,1116.9 633.924,1116.9 640,1123.5C 642.738,1134.39 638.571,1139.72 627.5,1139.5 Z"/></g>
<g><path style="opacity:1" fill="#dedee3" d="M 668.5,1137.5 C 667.778,1138.55 666.778,1139.22 665.5,1139.5C 664.5,1139.5 663.5,1139.5 662.5,1139.5C 661.918,1133.92 660.418,1128.59 658,1123.5C 656.791,1128.55 655.458,1133.55 654,1138.5C 652.333,1139.83 650.667,1139.83 649,1138.5C 647.18,1131.89 645.68,1125.22 644.5,1118.5C 645.822,1118.33 646.989,1118.66 648,1119.5C 648.836,1124.37 650.169,1129.04 652,1133.5C 653.333,1128.83 654.667,1124.17 656,1119.5C 657.356,1118.62 658.856,1118.29 660.5,1118.5C 662.094,1124.12 663.594,1129.79 665,1135.5C 666.361,1129.86 667.528,1124.19 668.5,1118.5C 669.978,1118.24 671.311,1118.57 672.5,1119.5C 670.534,1125.36 669.201,1131.36 668.5,1137.5 Z"/></g>
<g><path style="opacity:1" fill="#dedee3" d="M 557.5,1110.5 C 558.833,1110.5 560.167,1110.5 561.5,1110.5C 561.5,1120.17 561.5,1129.83 561.5,1139.5C 560.167,1139.5 558.833,1139.5 557.5,1139.5C 557.649,1138.45 557.483,1137.45 557,1136.5C 547.991,1142.18 542.824,1139.68 541.5,1129C 542.824,1118.32 547.991,1115.82 557,1121.5C 557.499,1117.85 557.665,1114.18 557.5,1110.5 Z"/></g>
<g><path style="opacity:1" fill="#191a3d" d="M 360.5,1121.5 C 370.163,1121.65 372.83,1126.15 368.5,1135C 361.495,1138.5 357.828,1136.33 357.5,1128.5C 357.695,1125.78 358.695,1123.45 360.5,1121.5 Z"/></g>
<g><path style="opacity:1" fill="#131639" d="M 432.5,1121.5 C 434.857,1121.34 437.19,1121.5 439.5,1122C 441.037,1123.11 441.703,1124.61 441.5,1126.5C 437.833,1126.5 434.167,1126.5 430.5,1126.5C 430.392,1124.49 431.058,1122.82 432.5,1121.5 Z"/></g>
<g><path style="opacity:1" fill="#9a9baa" d="M 482.5,1120.5 C 480.735,1121.46 478.735,1121.79 476.5,1121.5C 476.5,1125.83 476.5,1130.17 476.5,1134.5C 475.514,1130.03 475.181,1125.36 475.5,1120.5C 477.833,1120.5 480.167,1120.5 482.5,1120.5 Z"/></g>
<g><path style="opacity:1" fill="#0f1235" d="M 548.5,1121.5 C 556.322,1121.17 559.156,1124.83 557,1132.5C 555.309,1136.21 552.475,1137.38 548.5,1136C 547.333,1135.5 546.5,1134.67 546,1133.5C 544.773,1128.94 545.607,1124.94 548.5,1121.5 Z"/></g>
<g><path style="opacity:1" fill="#111437" d="M 627.5,1121.5 C 637.163,1121.65 639.83,1126.15 635.5,1135C 628.495,1138.5 624.828,1136.33 624.5,1128.5C 624.695,1125.78 625.695,1123.45 627.5,1121.5 Z"/></g>
<g><path style="opacity:1" fill="#0e1235" d="M 507.5,1128.5 C 509.432,1134.76 507.099,1137.26 500.5,1136C 499.446,1134.61 499.28,1133.11 500,1131.5C 502.672,1130.72 505.172,1129.72 507.5,1128.5 Z"/></g>
<g><path style="opacity:1" fill="#111337" d="M 453.5,1143.5 C 485.424,1140.6 508.258,1153.6 522,1182.5C 530.49,1209.75 524.657,1233.25 504.5,1253C 489.097,1265.6 471.431,1270.27 451.5,1267C 426.176,1261.01 410.009,1245.51 403,1220.5C 397.05,1184.89 410.55,1160.06 443.5,1146C 447.038,1145.47 450.372,1144.63 453.5,1143.5 Z"/></g>
<g><path style="opacity:1" fill="#0b0d32" d="M 863.5,1158.5 C 854.904,1192.67 849.904,1227.67 848.5,1263.5C 806.617,1260.2 765.283,1263.37 724.5,1273C 712.247,1276.64 700.247,1280.64 688.5,1285C 698.59,1251.3 703.924,1216.8 704.5,1181.5C 748.527,1184.72 791.86,1180.89 834.5,1170C 840.363,1167.6 846.363,1165.6 852.5,1164C 856.402,1162.44 860.069,1160.6 863.5,1158.5 Z"/></g>
<g><path style="opacity:1" fill="#0b0d32" d="M 1008.5,1621.5 C 1008.5,1763.5 1008.5,1905.5 1008.5,2047.5C 991.5,2047.5 974.5,2047.5 957.5,2047.5C 959.397,1948.44 918.73,1872.61 835.5,1820C 764.476,1781.83 691.476,1777.5 616.5,1807C 538.919,1842.25 491.419,1901.75 474,1985.5C 470.047,2006 467.547,2026.67 466.5,2047.5C 360.167,2047.5 253.833,2047.5 147.5,2047.5C 153.418,2018.85 157.085,1989.85 158.5,1960.5C 205.063,1964.59 250.73,1960.09 295.5,1947C 372.854,1918.64 424.021,1865.14 449,1786.5C 473.695,1689.42 450.528,1605.92 379.5,1536C 307.967,1475.19 226.967,1458.19 136.5,1485C 76.1011,1506.18 30.4344,1544.68 -0.5,1600.5C -0.5,1501.83 -0.5,1403.17 -0.5,1304.5C 91.351,1304 162.518,1265.67 213,1189.5C 210.579,1218.95 213.245,1247.95 221,1276.5C 250.281,1369.45 312.114,1427.62 406.5,1451C 458.483,1461.03 508.649,1455.53 557,1434.5C 557.5,1434.83 558,1435.17 558.5,1435.5C 555.218,1445.63 552.718,1455.96 551,1466.5C 538.997,1555.17 565.497,1630 630.5,1691C 697.26,1745.89 772.926,1763.23 857.5,1743C 924.667,1723.32 975.001,1682.82 1008.5,1621.5 Z"/></g>
<g><path style="opacity:1" fill="#181a3d" d="M 652.5,1358.5 C 643.489,1368.18 634.822,1378.18 626.5,1388.5C 606.675,1406.8 584.509,1421.8 560,1433.5C 560.693,1428.41 562.026,1423.41 564,1418.5C 572.784,1397.59 583.618,1377.92 596.5,1359.5C 604.138,1350.86 611.805,1342.19 619.5,1333.5C 639.38,1314.13 661.88,1298.46 687,1286.5C 680.089,1312.66 668.589,1336.66 652.5,1358.5 Z"/></g>
<g><path style="opacity:1" fill="#111337" d="M 1008.5,1354.5 C 1008.5,1368.5 1008.5,1382.5 1008.5,1396.5C 957.893,1391.46 907.226,1386.96 856.5,1383C 834.444,1381.98 812.444,1382.65 790.5,1385C 755.449,1388.27 726.949,1403.44 705,1430.5C 677.519,1470.48 674.186,1512.48 695,1556.5C 721.725,1601.21 761.225,1621.71 813.5,1618C 853.599,1611.86 883.099,1591.03 902,1555.5C 917.068,1515.32 923.568,1473.66 921.5,1430.5C 935.485,1431.45 949.485,1432.12 963.5,1432.5C 963.225,1467.58 959.392,1502.24 952,1536.5C 944.312,1569.05 928.479,1596.88 904.5,1620C 857.643,1658.56 804.977,1668.9 746.5,1651C 687.867,1628.03 653.034,1585.53 642,1523.5C 635.223,1460.71 656.723,1410.21 706.5,1372C 737.625,1353.77 771.292,1344.1 807.5,1343C 830.167,1342.33 852.833,1342.33 875.5,1343C 919.811,1347.1 964.144,1350.94 1008.5,1354.5 Z"/></g>
<g><path style="opacity:1" fill="#111337" d="M 789.5,1438.5 C 827.673,1437.14 851.506,1454.81 861,1491.5C 862.446,1534.71 841.779,1558.71 799,1563.5C 767.721,1561.37 747.388,1545.37 738,1515.5C 733.225,1475.03 750.391,1449.36 789.5,1438.5 Z"/></g>
<g><path style="opacity:1" fill="#111337" d="M 147.5,2047.5 C 133.167,2047.5 118.833,2047.5 104.5,2047.5C 114.687,2004.45 119.353,1960.79 118.5,1916.5C 152.439,1919.33 186.439,1920.17 220.5,1919C 316.014,1911.8 379.181,1862.97 410,1772.5C 427.499,1702.31 413.499,1639.31 368,1583.5C 316.106,1527.53 252.272,1505.37 176.5,1517C 94.5878,1535.24 42.0878,1584.74 19,1665.5C 9.82165,1706.63 5.32165,1748.3 5.5,1790.5C 3.5,1790.5 1.5,1790.5 -0.5,1790.5C -0.5,1727.17 -0.5,1663.83 -0.5,1600.5C 30.4344,1544.68 76.1011,1506.18 136.5,1485C 226.967,1458.19 307.967,1475.19 379.5,1536C 450.528,1605.92 473.695,1689.42 449,1786.5C 424.021,1865.14 372.854,1918.64 295.5,1947C 250.73,1960.09 205.063,1964.59 158.5,1960.5C 157.085,1989.85 153.418,2018.85 147.5,2047.5 Z"/></g>
<g><path style="opacity:1" fill="#0b0d32" d="M 104.5,2047.5 C 90.1667,2047.5 75.8333,2047.5 61.5,2047.5C 69.6672,2024.85 75.1672,2001.52 78,1977.5C 79.6741,1957.19 80.8407,1936.86 81.5,1916.5C 67.838,1915.74 54.1713,1915.08 40.5,1914.5C 40.2302,1940.99 38.0635,1967.32 34,1993.5C 30.8978,2012.64 24.7311,2030.64 15.5,2047.5C 10.1667,2047.5 4.83333,2047.5 -0.5,2047.5C -0.5,1987.83 -0.5,1928.17 -0.5,1868.5C 47.389,1873.66 95.389,1877.82 143.5,1881C 177.769,1883.12 211.769,1881.12 245.5,1875C 312.073,1857.75 351.907,1815.25 365,1747.5C 371.72,1688.3 352.887,1639.13 308.5,1600C 258.188,1562.38 203.521,1554.71 144.5,1577C 95.8814,1599.62 65.7148,1637.12 54,1689.5C 47.2028,1722.8 43.7028,1756.47 43.5,1790.5C 57.1568,1791.63 70.8235,1792.63 84.5,1793.5C 84.3721,1758.24 88.5388,1723.57 97,1689.5C 112.274,1641.56 144.774,1613.73 194.5,1606C 252.862,1603.26 294.028,1628.42 318,1681.5C 333.652,1732.06 322.485,1775.56 284.5,1812C 262.86,1827.97 238.527,1836.97 211.5,1839C 189.522,1840.52 167.522,1840.85 145.5,1840C 96.8108,1836.03 48.1442,1831.86 -0.5,1827.5C -0.5,1815.17 -0.5,1802.83 -0.5,1790.5C 1.5,1790.5 3.5,1790.5 5.5,1790.5C 5.32165,1748.3 9.82165,1706.63 19,1665.5C 42.0878,1584.74 94.5878,1535.24 176.5,1517C 252.272,1505.37 316.106,1527.53 368,1583.5C 413.499,1639.31 427.499,1702.31 410,1772.5C 379.181,1862.97 316.014,1911.8 220.5,1919C 186.439,1920.17 152.439,1919.33 118.5,1916.5C 119.353,1960.79 114.687,2004.45 104.5,2047.5 Z"/></g>
<g><path style="opacity:1" fill="#111337" d="M -0.5,1868.5 C -0.5,1854.83 -0.5,1841.17 -0.5,1827.5C 48.1442,1831.86 96.8108,1836.03 145.5,1840C 167.522,1840.85 189.522,1840.52 211.5,1839C 238.527,1836.97 262.86,1827.97 284.5,1812C 322.485,1775.56 333.652,1732.06 318,1681.5C 294.028,1628.42 252.862,1603.26 194.5,1606C 144.774,1613.73 112.274,1641.56 97,1689.5C 88.5388,1723.57 84.3721,1758.24 84.5,1793.5C 70.8235,1792.63 57.1568,1791.63 43.5,1790.5C 43.7028,1756.47 47.2028,1722.8 54,1689.5C 65.7148,1637.12 95.8814,1599.62 144.5,1577C 203.521,1554.71 258.188,1562.38 308.5,1600C 352.887,1639.13 371.72,1688.3 365,1747.5C 351.907,1815.25 312.073,1857.75 245.5,1875C 211.769,1881.12 177.769,1883.12 143.5,1881C 95.389,1877.82 47.389,1873.66 -0.5,1868.5 Z"/></g>
<g><path style="opacity:1" fill="#111337" d="M 198.5,1660.5 C 233.108,1658.71 256.275,1674.04 268,1706.5C 274.446,1747.8 257.612,1773.96 217.5,1785C 185.228,1787.95 162.394,1774.79 149,1745.5C 138.723,1701.37 155.223,1673.04 198.5,1660.5 Z"/></g>
<g><path style="opacity:1" fill="#111337" d="M 957.5,2047.5 C 943.5,2047.5 929.5,2047.5 915.5,2047.5C 918.831,1973.42 891.498,1913.59 833.5,1868C 770.297,1824.75 702.963,1817.08 631.5,1845C 565.226,1876.29 525.726,1928.13 513,2000.5C 510.187,2016.06 508.353,2031.73 507.5,2047.5C 493.833,2047.5 480.167,2047.5 466.5,2047.5C 467.547,2026.67 470.047,2006 474,1985.5C 491.419,1901.75 538.919,1842.25 616.5,1807C 691.476,1777.5 764.476,1781.83 835.5,1820C 918.73,1872.61 959.397,1948.44 957.5,2047.5 Z"/></g>
<g><path style="opacity:1" fill="#0b0d32" d="M 915.5,2047.5 C 898.833,2047.5 882.167,2047.5 865.5,2047.5C 865.71,1978.6 835.71,1927.77 775.5,1895C 718.837,1870.23 664.837,1874.89 613.5,1909C 583.023,1932.11 563.19,1962.27 554,1999.5C 549.862,2015.27 547.029,2031.27 545.5,2047.5C 532.833,2047.5 520.167,2047.5 507.5,2047.5C 508.353,2031.73 510.187,2016.06 513,2000.5C 525.726,1928.13 565.226,1876.29 631.5,1845C 702.963,1817.08 770.297,1824.75 833.5,1868C 891.498,1913.59 918.831,1973.42 915.5,2047.5 Z"/></g>
<g><path style="opacity:1" fill="#111337" d="M 865.5,2047.5 C 851.5,2047.5 837.5,2047.5 823.5,2047.5C 824.231,1989.78 798.231,1949.61 745.5,1927C 696.619,1912.39 654.452,1923.23 619,1959.5C 603.423,1979.49 593.757,2002.15 590,2027.5C 588.404,2034.08 587.57,2040.74 587.5,2047.5C 573.5,2047.5 559.5,2047.5 545.5,2047.5C 547.029,2031.27 549.862,2015.27 554,1999.5C 563.19,1962.27 583.023,1932.11 613.5,1909C 664.837,1874.89 718.837,1870.23 775.5,1895C 835.71,1927.77 865.71,1978.6 865.5,2047.5 Z"/></g>
<g><path style="opacity:1" fill="#111337" d="M 61.5,2047.5 C 46.1667,2047.5 30.8333,2047.5 15.5,2047.5C 24.7311,2030.64 30.8978,2012.64 34,1993.5C 38.0635,1967.32 40.2302,1940.99 40.5,1914.5C 54.1713,1915.08 67.838,1915.74 81.5,1916.5C 80.8407,1936.86 79.6741,1957.19 78,1977.5C 75.1672,2001.52 69.6672,2024.85 61.5,2047.5 Z"/></g>
<g><path style="opacity:1" fill="#0b0d32" d="M 823.5,2047.5 C 804.833,2047.5 786.167,2047.5 767.5,2047.5C 770.264,2011.19 754.264,1987.69 719.5,1977C 683.524,1972.34 659.024,1986.84 646,2020.5C 643.841,2029.36 643.007,2038.36 643.5,2047.5C 624.833,2047.5 606.167,2047.5 587.5,2047.5C 587.57,2040.74 588.404,2034.08 590,2027.5C 593.757,2002.15 603.423,1979.49 619,1959.5C 654.452,1923.23 696.619,1912.39 745.5,1927C 798.231,1949.61 824.231,1989.78 823.5,2047.5 Z"/></g>
<g><path style="opacity:1" fill="#111337" d="M 767.5,2047.5 C 726.167,2047.5 684.833,2047.5 643.5,2047.5C 643.007,2038.36 643.841,2029.36 646,2020.5C 659.024,1986.84 683.524,1972.34 719.5,1977C 754.264,1987.69 770.264,2011.19 767.5,2047.5 Z"/></g>
</svg>
